<svg id="レイヤー_1" data-name="レイヤー 1" xmlns="http://www.w3.org/2000/svg" viewBox="0 0 750 128"><defs><style>.cls-1{fill:#7c95dd;}.cls-2{fill:#262626;fill-rule:evenodd;}</style></defs><title>アートボード 13</title><rect class="cls-1" width="750" height="128"/><path class="cls-2" d="M113,45.119a26.768,26.768,0,0,1-7.206,1.959A12.387,12.387,0,0,0,111.34,40.2a25.564,25.564,0,0,1-8,3.022,12.618,12.618,0,0,0-21.755,8.435,12.893,12.893,0,0,0,.367,2.824,35.663,35.663,0,0,1-25.9-12.919A12.2,12.2,0,0,0,59.9,58.072a12.163,12.163,0,0,1-5.677-1.529v.167a11.7,11.7,0,0,0,.862,4.45A12.527,12.527,0,0,0,64.315,68.8a12.3,12.3,0,0,1-3.321.464A11.251,11.251,0,0,1,58.634,69,12.669,12.669,0,0,0,70.36,77.632a25.408,25.408,0,0,1-15.577,5.281c-1.03,0-1.992-.068-3.021-.167a36.257,36.257,0,0,0,19.261,5.547c19.627,0,31.749-13.584,34.9-27.7a33.964,33.964,0,0,0,.831-7.472V51.529A26,26,0,0,0,113,45.119Z"/><path d="M142.77,45.074a.93.93,0,0,1,1.35.35,40.131,40.131,0,0,1,5.6,9.451,1.922,1.922,0,0,1,.2.649c0,.3-.2.5-.6.751a30.7,30.7,0,0,1-3.849,1.95c-.75.3-1.051-.05-1.3-.75a39.8,39.8,0,0,0-5.85-10.1A39.006,39.006,0,0,1,142.77,45.074Zm35,.75a1.152,1.152,0,0,1,.55,1,1.232,1.232,0,0,1-.4.85,9.932,9.932,0,0,0-1.949,3.3c-3.551,7.95-6.352,12.7-9.7,17a53.9,53.9,0,0,1-13.2,12.4,2.1,2.1,0,0,1-1.149.45,1.462,1.462,0,0,1-.851-.349,15.315,15.315,0,0,0-4.8-2.351c6.9-4.55,10.85-8.15,14.85-13.2a60.026,60.026,0,0,0,8.65-15.5,22.6,22.6,0,0,0,1.451-6.55A35.825,35.825,0,0,1,177.772,45.824Zm-21.952-3.85a.929.929,0,0,1,1.3.4,41.564,41.564,0,0,1,4.9,9.251.973.973,0,0,1-.5,1.4,33.329,33.329,0,0,1-3.8,1.8c-.8.3-1.1.2-1.35-.6a40.151,40.151,0,0,0-5.15-10.1C152.721,43.424,154.32,42.624,155.82,41.974Z"/><path d="M208.771,69.625c0,3.451.051,6.4.151,10.4.05.65-.2.85-.75.85a41.292,41.292,0,0,1-5,0c-.551,0-.75-.2-.7-.8.05-3.6.2-6.85.2-10.25V58.175a86.445,86.445,0,0,1-13.752,9.6,1.4,1.4,0,0,1-1.8-.3,18.694,18.694,0,0,0-4.3-2.951,80.244,80.244,0,0,0,15.751-10.251,81.256,81.256,0,0,0,10.651-10.45,14.492,14.492,0,0,0,3.15-5.15,44.366,44.366,0,0,1,5.55,3.5.882.882,0,0,1,.4.75,1.429,1.429,0,0,1-.7,1.1,16.549,16.549,0,0,0-3,2.75,78.815,78.815,0,0,1-5.851,6.3Z"/><path d="M237.371,63.525a39.988,39.988,0,0,0-7.351.6c-.6,0-1-.3-1.15-1.05a54.3,54.3,0,0,1-.75-6.05,64.236,64.236,0,0,0,10.8.6h16.1c3.8,0,7.651-.1,11.5-.15.75-.05.9.1.9.7a36.854,36.854,0,0,1,0,4.7c0,.6-.2.8-.9.75-3.751-.05-7.45-.1-11.151-.1Z"/><path d="M289.721,53.274a70.628,70.628,0,0,1,15.9,6.8c.55.3.8.651.55,1.3a29.286,29.286,0,0,1-2.151,4.35c-.2.35-.4.55-.649.55a.765.765,0,0,1-.55-.25,55.383,55.383,0,0,0-13.151-6.4V70.676c0,3.25.1,6.2.2,9.8.05.6-.2.75-.9.75a33.375,33.375,0,0,1-4.45,0c-.7,0-.951-.151-.951-.75.151-3.7.2-6.651.2-9.852v-24.6a38.152,38.152,0,0,0-.5-7.4,36.821,36.821,0,0,1,6.25.8c.7.15.95.449.95.849a2.63,2.63,0,0,1-.4,1.151c-.35.65-.35,1.9-.35,4.7Z"/><path d="M335.521,72.875a8.347,8.347,0,0,1-8.25,8.051c-3,0-5-1.449-5-4.4,0-4.4,4.4-7.4,8.15-7.4a5.544,5.544,0,0,1,3.35,1V39.074h1.5a8.6,8.6,0,0,0,2.75,5.75,41.857,41.857,0,0,1,6.551,7.25c1.35,2.1,2.1,4.151,2.1,8.151,0,3.65-1.551,7.951-6.151,11.6l-.65-.6c3.7-3.5,4.8-7.2,4.8-9.751a8.979,8.979,0,0,0-2.9-7.2,21.555,21.555,0,0,0-6.25-4.25Z"/><path d="M371.811,67.471a8.4,8.4,0,0,1-1.966-5.932,13.227,13.227,0,0,1,3-8.277,9.044,9.044,0,0,1,7.373-3.858A5.383,5.383,0,0,1,384.2,50.82a5.552,5.552,0,0,1,1.441,2.516l.879-3.076h4.614l-3.125,10.6q-.366,1.295-.525,1.916a4.486,4.486,0,0,0-.159,1.086,2.25,2.25,0,0,0,.488,1.38,1.831,1.831,0,0,0,1.563.648q2.1,0,4.212-2.747A11.65,11.65,0,0,0,395.7,55.85a10.023,10.023,0,0,0-5.761-9.643,17.543,17.543,0,0,0-8.13-1.855q-8.3,0-13.33,5.078a15.093,15.093,0,0,0-4.541,11.009,13.608,13.608,0,0,0,5.322,11.305,18.092,18.092,0,0,0,11.5,3.686,21.951,21.951,0,0,0,8.667-1.709,23.164,23.164,0,0,0,4.541-2.563l.586-.416,1.782,2.735a26.247,26.247,0,0,1-7.508,4.089,25.361,25.361,0,0,1-8.386,1.405q-10.131,0-15.7-6.3a18.088,18.088,0,0,1-4.614-12.379,18.159,18.159,0,0,1,5.762-13.574q6.054-5.883,15.5-5.883,7.69,0,12.744,4.027a13.71,13.71,0,0,1,5.322,11.28,14.2,14.2,0,0,1-3.369,9.509q-3.369,3.967-7.691,3.967a4.539,4.539,0,0,1-3.454-1.269,3.793,3.793,0,0,1-1.209-2.612c0-.114,0-.24.012-.379s.021-.289.037-.451a10.225,10.225,0,0,1-2.075,2.807,7.161,7.161,0,0,1-4.981,1.881A6.419,6.419,0,0,1,371.811,67.471Zm11.657-13.842a2.67,2.67,0,0,0-2.1-.879q-2.538,0-4.37,3.161a12.2,12.2,0,0,0-1.831,6.116,4.706,4.706,0,0,0,.817,2.881,2.707,2.707,0,0,0,2.308,1.1q2.612,0,4.284-3.967a17.434,17.434,0,0,0,1.673-6.238A3.155,3.155,0,0,0,383.468,53.629Z"/><path d="M436.175,51.455a7.746,7.746,0,0,1,3.1,2.393,7.66,7.66,0,0,1,1.514,3.418,23.725,23.725,0,0,1,.244,3.931l-.049,16.772h-7.129V61.025a5.579,5.579,0,0,0-.488-2.49,3.471,3.471,0,0,0-3.418-1.855,4,4,0,0,0-3.979,2.392,7.531,7.531,0,0,0-.562,3.053V77.969H418.4V62.125a8.912,8.912,0,0,0-.488-3.443,3.407,3.407,0,0,0-3.442-1.928q-2.981,0-4,1.928a7.422,7.422,0,0,0-.562,3.271V77.969H402.85V51.406h6.762v3.883a11.2,11.2,0,0,1,2.442-2.955,9.654,9.654,0,0,1,10.18-.219,7.823,7.823,0,0,1,2.3,3.2,8.848,8.848,0,0,1,3.394-3.441,10.36,10.36,0,0,1,4.785-1.1A9.281,9.281,0,0,1,436.175,51.455Z"/><path d="M450.283,48.184h-7.056v-6.42h7.056Zm-7.056,3.173h7.056V77.969h-7.056Z"/><path d="M452.648,42.105h6.836V61.518L468.26,51.48h8.652l-9.538,9.914,9.907,16.575h-8.468L462.365,66.6l-2.881,3v8.373h-6.836Z"/><path d="M483.162,51.357V67.4a8.419,8.419,0,0,0,.535,3.418,3.693,3.693,0,0,0,3.716,2.026,4.853,4.853,0,0,0,4.858-2.881,10.457,10.457,0,0,0,.681-4.125V51.357h7.056V77.969h-6.763v-3.76q-.1.123-.487.732a4.88,4.88,0,0,1-.924,1.075,9.677,9.677,0,0,1-3.153,2,10.727,10.727,0,0,1-3.568.537q-5.891,0-7.935-4.248a16.278,16.278,0,0,1-1.145-6.909V51.357Z"/><path d="M518.389,60.9a6.16,6.16,0,0,0-1-2.685,4.211,4.211,0,0,0-3.647-1.612,4.8,4.8,0,0,0-4.82,3.491,14.491,14.491,0,0,0-.686,4.92,13.315,13.315,0,0,0,.686,4.7,4.651,4.651,0,0,0,4.7,3.32,4.149,4.149,0,0,0,3.475-1.318A6.556,6.556,0,0,0,518.34,68.3h7.1a11.617,11.617,0,0,1-2.3,6.006q-3.274,4.568-9.7,4.566t-9.458-3.809a15.384,15.384,0,0,1-3.03-9.876q0-6.848,3.348-10.657t9.238-3.808a13.931,13.931,0,0,1,8.2,2.246q3.188,2.247,3.776,7.935Z"/><path d="M540.762,50.735q.134.014.6.036V57.9q-.659-.072-1.171-.1c-.342-.016-.62-.024-.831-.024q-4.2,0-5.639,2.735a10.633,10.633,0,0,0-.806,4.736V77.969h-7.007V51.357h6.641V56a14.708,14.708,0,0,1,2.808-3.637,7.642,7.642,0,0,1,5.078-1.636C540.562,50.723,540.672,50.728,540.762,50.735Z"/><path d="M563.328,74.714q-3.369,4.158-10.228,4.159t-10.231-4.159A15.405,15.405,0,0,1,539.5,64.7a15.506,15.506,0,0,1,3.369-9.976Q546.238,50.5,553.1,50.5t10.228,4.22A15.506,15.506,0,0,1,566.7,64.7,15.405,15.405,0,0,1,563.328,74.714Zm-5.566-3.846A10.08,10.08,0,0,0,559.4,64.7a10.02,10.02,0,0,0-1.636-6.155,6.183,6.183,0,0,0-9.387,0,9.966,9.966,0,0,0-1.648,6.155,10.026,10.026,0,0,0,1.648,6.168,6.163,6.163,0,0,0,9.387,0Z"/><path d="M572.773,69.473a4.64,4.64,0,0,0,.957,2.636q1.3,1.392,4.809,1.393a7.34,7.34,0,0,0,3.274-.611,1.954,1.954,0,0,0,1.214-1.83,1.979,1.979,0,0,0-.977-1.784q-.979-.609-7.279-2.1-4.537-1.122-6.392-2.807a6.091,6.091,0,0,1-1.856-4.785,8.291,8.291,0,0,1,2.9-6.336q2.9-2.649,8.158-2.648a15,15,0,0,1,8.136,1.989q3.143,1.99,3.608,6.872h-6.957a4.1,4.1,0,0,0-.76-2.123q-1.151-1.416-3.917-1.416a5.649,5.649,0,0,0-3.243.707,2.039,2.039,0,0,0-.967,1.66,1.815,1.815,0,0,0,1.028,1.734,44.468,44.468,0,0,0,7.265,1.928,13.334,13.334,0,0,1,6.233,2.955,6.7,6.7,0,0,1,2.051,5,8.081,8.081,0,0,1-2.948,6.458q-2.948,2.5-9.112,2.5-6.288,0-9.284-2.649a8.611,8.611,0,0,1-3-6.751Z"/><path d="M596.281,69.473a4.632,4.632,0,0,0,.957,2.636q1.3,1.392,4.808,1.393a7.334,7.334,0,0,0,3.274-.611,1.953,1.953,0,0,0,1.215-1.83,1.978,1.978,0,0,0-.978-1.784q-.98-.609-7.28-2.1-4.534-1.122-6.39-2.807a6.084,6.084,0,0,1-1.856-4.785,8.293,8.293,0,0,1,2.9-6.336q2.9-2.649,8.159-2.648a15,15,0,0,1,8.135,1.989q3.143,1.99,3.609,6.872h-6.958a4.113,4.113,0,0,0-.759-2.123q-1.15-1.416-3.918-1.416a5.652,5.652,0,0,0-3.243.707,2.039,2.039,0,0,0-.967,1.66,1.815,1.815,0,0,0,1.029,1.734,44.475,44.475,0,0,0,7.264,1.928,13.339,13.339,0,0,1,6.234,2.955,6.7,6.7,0,0,1,2.05,5,8.078,8.078,0,0,1-2.948,6.458q-2.948,2.5-9.112,2.5-6.288,0-9.283-2.649a8.612,8.612,0,0,1-3-6.751Z"/><path d="M621.547,48.184h-7.056v-6.42h7.056Zm-7.056,3.173h7.056V77.969h-7.056Z"/><path d="M645.444,52.884q2.615,2.16,2.614,7.165v17.92h-7.129V61.783a7.421,7.421,0,0,0-.558-3.222q-1.019-2.052-3.877-2.051a4.8,4.8,0,0,0-4.823,3,10.392,10.392,0,0,0-.679,4.052v14.4h-6.958V51.406h6.738v3.883a11.856,11.856,0,0,1,2.529-2.955,8.761,8.761,0,0,1,5.422-1.611A10.2,10.2,0,0,1,645.444,52.884Z"/><path d="M663.392,51.334a8.352,8.352,0,0,1,4.1,3.857V51.357h6.787V76.6q0,5.151-1.734,7.763-2.978,4.493-11.426,4.492a15.562,15.562,0,0,1-8.324-2,7.38,7.38,0,0,1-3.564-5.98H656.8a3.143,3.143,0,0,0,.951,1.758,5.881,5.881,0,0,0,3.785.951q3.759,0,5.03-2.514a12.759,12.759,0,0,0,.83-5.42V73.941a8.49,8.49,0,0,1-2.149,2.563,8.643,8.643,0,0,1-5.4,1.588,10.21,10.21,0,0,1-8.191-3.6q-3.064-3.6-3.063-9.754a16.449,16.449,0,0,1,2.949-9.972,9.744,9.744,0,0,1,8.363-4.041A9.146,9.146,0,0,1,663.392,51.334Zm2.37,19.079q1.677-1.842,1.677-5.872a9.015,9.015,0,0,0-1.593-5.762A5.194,5.194,0,0,0,661.58,56.8a5.027,5.027,0,0,0-5.033,3.441,12.266,12.266,0,0,0-.729,4.518,10.312,10.312,0,0,0,.778,4.125,5.069,5.069,0,0,0,5.056,3.369A5.342,5.342,0,0,0,665.762,70.413Z"/></svg>
