<svg id="レイヤー_1" data-name="レイヤー 1" xmlns="http://www.w3.org/2000/svg" viewBox="0 0 750 750"><defs><style>.cls-1{fill:#fff;}.cls-2,.cls-4{fill:#349980;}.cls-3{fill:#e93589;}.cls-4,.cls-5{opacity:0.6;}.cls-5{fill:#d61972;}.cls-6{fill:none;stroke:#000;stroke-miterlimit:10;}</style></defs><title>アートボード 1</title><rect class="cls-1" width="750" height="750"/><path class="cls-2" d="M252.884,167.262a28.946,28.946,0,0,1,5.716,4,22.8,22.8,0,0,1,4.626,5.794,16.348,16.348,0,0,1,2.094,7.588v27.979a4.254,4.254,0,0,1-1.715,3.516,6.021,6.021,0,0,1-4.138,1.25c-3.5-.429-5.428-2.263-5.727-5.5V183.463a7.671,7.671,0,0,0-.9-3.41,9.788,9.788,0,0,0-1.817-2.413,9.391,9.391,0,0,0-2.069-1.5,7.6,7.6,0,0,0-2.191-.756,6.971,6.971,0,0,0-2.27-.03,6.014,6.014,0,0,0-4.148,2.629,5.525,5.525,0,0,0-.882,3.265v29.738a4.48,4.48,0,0,1-2.028,3.813,7.542,7.542,0,0,1-4.9,1.341c-4.152-.484-6.481-2.494-6.908-6.03V179.1a7.923,7.923,0,0,0-1.072-3.735,11.09,11.09,0,0,0-2.165-2.666,11.51,11.51,0,0,0-2.469-1.677,9.765,9.765,0,0,0-2.617-.866,9.112,9.112,0,0,0-2.714-.074,7.92,7.92,0,0,0-2.641.814,7.094,7.094,0,0,0-2.33,1.991,5.6,5.6,0,0,0-1.059,3.562L205.019,283.1c0,1.734.025,5.24-.959,6.224-1.577,1.577-2.461,1.33-4.755,1.265-5.065-.144-3.964-3.137-4.475-6.882l-2.944-110.623a11.867,11.867,0,0,1,3.014-8.44,18.426,18.426,0,0,1,6.745-4.656,26.116,26.116,0,0,1,7.681-1.749,28.046,28.046,0,0,1,7.866.549,30.608,30.608,0,0,1,7.416,2.617,36.606,36.606,0,0,1,6.8,4.43q.618.555,1.131,1.085a11.788,11.788,0,0,0,1.124-.638,21.948,21.948,0,0,1,6.44-1.667,21.381,21.381,0,0,1,6.569.373A23.8,23.8,0,0,1,252.884,167.262Z"/><path class="cls-2" d="M295.59,178.438a4.88,4.88,0,0,1,2.678,1.67A4.634,4.634,0,0,1,299.415,183v28.766a3.577,3.577,0,0,1-3.825,3.622,4.368,4.368,0,0,1-2.886-1.26,3.846,3.846,0,0,1-1.239-2.883V181.573A3.153,3.153,0,0,1,292.734,179,3.49,3.49,0,0,1,295.59,178.438Z"/><path class="cls-2" d="M280.04,175.231a5.754,5.754,0,0,1,3.117,1.908,5.19,5.19,0,0,1,1.333,3.272v32.5c-.266,2.639-1.736,4.007-4.45,4.1a5.159,5.159,0,0,1-3.362-1.418,4.286,4.286,0,0,1-1.446-3.261V178.75a3.519,3.519,0,0,1,1.481-2.906A4.153,4.153,0,0,1,280.04,175.231Z"/><path class="cls-2" d="M303.714,190.527a32.685,32.685,0,0,1,7.881-3.558l6.662-2.355a1.953,1.953,0,0,1,.939-.111,2.622,2.622,0,0,1,1.853,1.254,4.5,4.5,0,0,1,.762,2.607,4.191,4.191,0,0,1-.514,2.4,3.329,3.329,0,0,1-1.325,1.076l-5.563,1.824q-1.683.578-3.214,1.17a13.506,13.506,0,0,0-2.839,1.5,2.594,2.594,0,0,0-1.393,2.059,3.823,3.823,0,0,0,1.393,2.447,19.586,19.586,0,0,0,2.839,2.29q1.53,1.02,3.214,2.066l6.18,3.639a4.235,4.235,0,0,1,1.827,3.974,3.578,3.578,0,0,1-.757,2.388,1.9,1.9,0,0,1-1.842.738,2.331,2.331,0,0,1-.933-.37l-7.289-4.459a46.534,46.534,0,0,1-7.9-5.783,10.4,10.4,0,0,1-3.14-7.823C300.582,194.239,301.646,191.908,303.714,190.527Z"/><path class="cls-2" d="M337.349,218.118a12.522,12.522,0,0,1-3.739-.788,15,15,0,0,1-3.65-1.989,13.069,13.069,0,0,1-3.165-3.4,9.483,9.483,0,0,1-1.518-4.911v-18.6a2.951,2.951,0,0,1,.822-2.233,2.037,2.037,0,0,1,1.919-.558c1.557.486,2.39,1.745,2.518,3.78V206a4.78,4.78,0,0,0,.9,2.675,7.68,7.68,0,0,0,1.805,1.785,9.023,9.023,0,0,0,2.031,1.063,7.893,7.893,0,0,0,2.081.466,7.165,7.165,0,0,0,2.038-.121,6.942,6.942,0,0,0,1.911-.7,5.422,5.422,0,0,0,1.639-1.391,3.917,3.917,0,0,0,.792-2.348V191.9a2.891,2.891,0,0,1,.686-2.052,1.632,1.632,0,0,1,1.6-.541c1.3.42,2.012,1.561,2.14,3.427v16.606a7.879,7.879,0,0,1-1.242,4.18,9.568,9.568,0,0,1-2.685,2.724,11.466,11.466,0,0,1-3.278,1.487A11.312,11.312,0,0,1,337.349,218.118Z"/><path class="cls-2" d="M365.28,240.57a1.308,1.308,0,0,1-.927-.385,1.8,1.8,0,0,1-.167-.2,1.974,1.974,0,0,1-.122-.228,1.752,1.752,0,0,1-.07-.245,1.209,1.209,0,0,1-.027-.253,1.309,1.309,0,0,1,.386-.928,1.817,1.817,0,0,1,.2-.167,1.96,1.96,0,0,1,.227-.122,2.048,2.048,0,0,1,.245-.07,1.242,1.242,0,0,1,.508,0,1.947,1.947,0,0,1,.245.07,1.974,1.974,0,0,1,.228.122,1.914,1.914,0,0,1,.2.167,1.312,1.312,0,0,1,.385.928,1.208,1.208,0,0,1-.026.253,1.151,1.151,0,0,1-.079.245,1.13,1.13,0,0,1-.114.228,1.79,1.79,0,0,1-.166.2,1.155,1.155,0,0,1-.2.158.825.825,0,0,1-.228.122,1.114,1.114,0,0,1-.245.079A1.164,1.164,0,0,1,365.28,240.57Z"/><path class="cls-2" d="M370.068,238.811a1.311,1.311,0,0,1,1.19-1.427h0a1.308,1.308,0,0,1,1.427,1.182h0a1.313,1.313,0,0,1-1.181,1.427h0a.613.613,0,0,1-.124.009h0A1.327,1.327,0,0,1,370.068,238.811Zm6.1-.569a1.3,1.3,0,0,1,1.19-1.426h0A1.312,1.312,0,0,1,378.785,238h0a1.3,1.3,0,0,1-1.19,1.427h0a.523.523,0,0,1-.123.009h0A1.31,1.31,0,0,1,376.169,238.242Zm6.1-.569a1.307,1.307,0,0,1,1.181-1.426h0a1.316,1.316,0,0,1,1.436,1.181h0a1.31,1.31,0,0,1-1.19,1.427h0a.527.527,0,0,1-.123.009h0A1.306,1.306,0,0,1,382.269,237.673Zm6.1-.569a1.308,1.308,0,0,1,1.182-1.426h0a1.315,1.315,0,0,1,1.435,1.181h0a1.322,1.322,0,0,1-1.19,1.436h-.122A1.313,1.313,0,0,1,388.369,237.1Zm6.1-.568a1.313,1.313,0,0,1,1.182-1.427h0a1.316,1.316,0,0,1,1.435,1.181h0a1.323,1.323,0,0,1-1.19,1.436h-.123A1.3,1.3,0,0,1,394.47,236.536Zm6.1-.569a1.312,1.312,0,0,1,1.181-1.427h0a1.3,1.3,0,0,1,1.426,1.19h0A1.312,1.312,0,0,1,402,237.157h-.122A1.3,1.3,0,0,1,400.571,235.967Zm6.1-.569a1.307,1.307,0,0,1,1.181-1.427h0a1.3,1.3,0,0,1,1.428,1.19h0a1.315,1.315,0,0,1-1.183,1.427h-.122A1.3,1.3,0,0,1,406.671,235.4Zm6.1-.569a1.308,1.308,0,0,1,1.182-1.427h0a1.314,1.314,0,0,1,1.427,1.19h0a1.313,1.313,0,0,1-1.182,1.427h0c-.044,0-.087.009-.122.009h0A1.314,1.314,0,0,1,412.771,234.829Zm6.092-.561a1.323,1.323,0,0,1,1.191-1.435h0a1.319,1.319,0,0,1,1.426,1.191h0a1.313,1.313,0,0,1-1.181,1.426h0a.609.609,0,0,1-.123.009h0A1.327,1.327,0,0,1,418.863,234.268Zm6.1-.568a1.316,1.316,0,0,1,1.19-1.436h0a1.319,1.319,0,0,1,1.426,1.191h0a1.312,1.312,0,0,1-1.189,1.426h0a.527.527,0,0,1-.123.009h0A1.318,1.318,0,0,1,424.964,233.7Zm6.1-.569a1.3,1.3,0,0,1,1.182-1.427h0a1.317,1.317,0,0,1,1.436,1.182h0a1.316,1.316,0,0,1-1.191,1.426h0a.522.522,0,0,1-.122.009h0A1.306,1.306,0,0,1,431.064,233.131Zm6.1-.569a1.3,1.3,0,0,1,1.182-1.427h0a1.316,1.316,0,0,1,1.435,1.182h0a1.311,1.311,0,0,1-1.191,1.427h0a.621.621,0,0,1-.122.008h0A1.3,1.3,0,0,1,437.165,232.562Zm6.1-.569a1.309,1.309,0,0,1,1.182-1.427h0a1.3,1.3,0,0,1,1.427,1.182h0a1.3,1.3,0,0,1-1.182,1.426h0a.609.609,0,0,1-.123.009h0A1.3,1.3,0,0,1,443.265,231.993Zm6.1-.569A1.312,1.312,0,0,1,450.547,230h0a1.3,1.3,0,0,1,1.427,1.182h0a1.317,1.317,0,0,1-1.181,1.436h-.123A1.3,1.3,0,0,1,449.366,231.424Zm6.092-.569a1.32,1.32,0,0,1,1.19-1.427h0a1.308,1.308,0,0,1,1.427,1.182h0a1.315,1.315,0,0,1-1.182,1.435h-.122A1.318,1.318,0,0,1,455.458,230.855Zm6.1-.569a1.319,1.319,0,0,1,1.191-1.426h0a1.312,1.312,0,0,1,1.426,1.181h0a1.316,1.316,0,0,1-1.182,1.435h-.131A1.317,1.317,0,0,1,461.558,230.286Zm6.1-.569a1.319,1.319,0,0,1,1.191-1.426h0a1.318,1.318,0,0,1,1.426,1.19h0a1.313,1.313,0,0,1-1.19,1.427h0c-.034,0-.079.009-.114.009h0A1.329,1.329,0,0,1,467.658,229.717Zm6.1-.56a1.316,1.316,0,0,1,1.19-1.435h0a1.319,1.319,0,0,1,1.427,1.19h0a1.314,1.314,0,0,1-1.19,1.427h0c-.035,0-.079.008-.123.008h0A1.318,1.318,0,0,1,473.759,229.157Zm6.1-.569a1.316,1.316,0,0,1,1.181-1.435h0a1.324,1.324,0,0,1,1.436,1.19h0a1.315,1.315,0,0,1-1.191,1.427h0c-.035,0-.078.008-.122.008h0A1.311,1.311,0,0,1,479.86,228.588Zm6.1-.569a1.3,1.3,0,0,1,1.182-1.427h0a1.31,1.31,0,0,1,1.435,1.182h0a1.314,1.314,0,0,1-1.19,1.427h0a.567.567,0,0,1-.123.009h0A1.312,1.312,0,0,1,485.96,228.019Zm6.1-.569a1.3,1.3,0,0,1,1.182-1.426h0a1.3,1.3,0,0,1,1.427,1.181h0a1.3,1.3,0,0,1-1.181,1.427h0a.614.614,0,0,1-.123.009h0A1.307,1.307,0,0,1,492.06,227.45Zm6.1-.569a1.3,1.3,0,0,1,1.182-1.426h0a1.307,1.307,0,0,1,1.426,1.181h0a1.3,1.3,0,0,1-1.181,1.427h0a.6.6,0,0,1-.122.009h0A1.305,1.305,0,0,1,498.161,226.881Z"/><path class="cls-2" d="M505.566,227.5a1.222,1.222,0,0,1-.254-.026,1.392,1.392,0,0,1-.254-.07,1.867,1.867,0,0,1-.219-.123.951.951,0,0,1-.2-.166,1.3,1.3,0,0,1-.385-.928,1.328,1.328,0,0,1,.385-.928,1.354,1.354,0,0,1,1.855,0,1.325,1.325,0,0,1,.386.928,1.309,1.309,0,0,1-.386.928A1.324,1.324,0,0,1,505.566,227.5Z"/><path class="cls-2" d="M172.628,258.653a1.369,1.369,0,0,1-.262-.026,1.343,1.343,0,0,1-.245-.079,1.414,1.414,0,0,1-.228-.123,1.048,1.048,0,0,1-.192-.157,1.165,1.165,0,0,1-.167-.2,1.974,1.974,0,0,1-.122-.228,2.5,2.5,0,0,1-.07-.245,1.274,1.274,0,0,1-.026-.254,1.331,1.331,0,0,1,.385-.936,1.629,1.629,0,0,1,.192-.158,1.489,1.489,0,0,1,.228-.122,1.343,1.343,0,0,1,.245-.079,1.716,1.716,0,0,1,.516,0,1.44,1.44,0,0,1,.473.2,1.726,1.726,0,0,1,.2.158,1.331,1.331,0,0,1,.385.936,1.352,1.352,0,0,1-.026.254,1.292,1.292,0,0,1-.079.245.825.825,0,0,1-.122.228,1.155,1.155,0,0,1-.158.2,1.1,1.1,0,0,1-.2.157,1.116,1.116,0,0,1-.228.123,1.151,1.151,0,0,1-.245.079A1.28,1.28,0,0,1,172.628,258.653Z"/><path class="cls-2" d="M177.53,256.876a1.313,1.313,0,0,1,1.182-1.426h0a1.322,1.322,0,0,1,1.435,1.19h0a1.32,1.32,0,0,1-1.191,1.427h-.122A1.3,1.3,0,0,1,177.53,256.876Zm6.205-.577a1.314,1.314,0,0,1,1.191-1.427h0a1.314,1.314,0,0,1,1.427,1.191h0a1.314,1.314,0,0,1-1.182,1.426h-.123A1.313,1.313,0,0,1,183.735,256.3Zm6.215-.578a1.311,1.311,0,0,1,1.181-1.426h0a1.3,1.3,0,0,1,1.427,1.181h0a1.316,1.316,0,0,1-1.182,1.435h-.122A1.3,1.3,0,0,1,189.95,255.721Zm6.205-.578a1.313,1.313,0,0,1,1.19-1.426h0a1.312,1.312,0,0,1,1.427,1.181h0a1.317,1.317,0,0,1-1.19,1.436h-.123A1.312,1.312,0,0,1,196.155,255.143Zm6.214-.577a1.308,1.308,0,0,1,1.182-1.427h0a1.308,1.308,0,0,1,1.427,1.182h0a1.316,1.316,0,0,1-1.182,1.435h-.123A1.306,1.306,0,0,1,202.369,254.566Zm6.206-.578a1.307,1.307,0,0,1,1.182-1.426h0a1.314,1.314,0,0,1,1.435,1.181h0a1.316,1.316,0,0,1-1.19,1.435h-.123A1.31,1.31,0,0,1,208.575,253.988Zm6.214-.578a1.3,1.3,0,0,1,1.182-1.426h0a1.3,1.3,0,0,1,1.427,1.181h0a1.3,1.3,0,0,1-1.182,1.427h0a.6.6,0,0,1-.122.009h0A1.306,1.306,0,0,1,214.789,253.41Zm6.206-.577a1.3,1.3,0,0,1,1.181-1.427h0a1.316,1.316,0,0,1,1.436,1.182h0a1.309,1.309,0,0,1-1.19,1.426h0a.527.527,0,0,1-.123.009h0A1.311,1.311,0,0,1,221,252.833Zm6.214-.578a1.3,1.3,0,0,1,1.182-1.426h0a1.306,1.306,0,0,1,1.426,1.181h0a1.3,1.3,0,0,1-1.181,1.427h0a.684.684,0,0,1-.123.008h0A1.3,1.3,0,0,1,227.209,252.255Zm6.206-.578a1.316,1.316,0,0,1,1.181-1.435h0a1.329,1.329,0,0,1,1.436,1.19h0a1.315,1.315,0,0,1-1.191,1.427h0a.562.562,0,0,1-.122.009h0A1.318,1.318,0,0,1,233.415,251.677Zm6.205-.577a1.323,1.323,0,0,1,1.191-1.436h0a1.32,1.32,0,0,1,1.426,1.191h0a1.307,1.307,0,0,1-1.181,1.426h0a.652.652,0,0,1-.132.009h0A1.318,1.318,0,0,1,239.62,251.1Zm6.215-.578a1.315,1.315,0,0,1,1.181-1.435h0a1.309,1.309,0,0,1,1.427,1.19h0a1.307,1.307,0,0,1-1.182,1.427h0c-.044,0-.078.008-.122.008h0A1.311,1.311,0,0,1,245.835,250.522Zm6.2-.578a1.323,1.323,0,0,1,1.19-1.435h0a1.32,1.32,0,0,1,1.427,1.19h0a1.313,1.313,0,0,1-1.181,1.427h0c-.044,0-.088.009-.132.009h0A1.318,1.318,0,0,1,252.04,249.944Zm6.214-.586a1.314,1.314,0,0,1,1.182-1.427h0a1.323,1.323,0,0,1,1.435,1.191h0a1.325,1.325,0,0,1-1.19,1.426h0c-.044,0-.088.009-.123.009h0A1.313,1.313,0,0,1,258.254,249.358Zm6.206-.569a1.316,1.316,0,0,1,1.19-1.435h0a1.313,1.313,0,0,1,1.427,1.19h0a1.313,1.313,0,0,1-1.182,1.427h0c-.044,0-.087.008-.131.008h0A1.318,1.318,0,0,1,264.46,248.789Zm6.214-.586a1.313,1.313,0,0,1,1.182-1.427h0a1.3,1.3,0,0,1,1.426,1.19h0a1.312,1.312,0,0,1-1.181,1.427h-.123A1.3,1.3,0,0,1,270.674,248.2Zm6.206-.578a1.314,1.314,0,0,1,1.19-1.427h0a1.314,1.314,0,0,1,1.427,1.191h0a1.313,1.313,0,0,1-1.191,1.426h-.122A1.31,1.31,0,0,1,276.88,247.625Zm6.2-.578a1.326,1.326,0,0,1,1.191-1.426h0A1.307,1.307,0,0,1,285.7,246.8h0a1.314,1.314,0,0,1-1.181,1.435H284.4A1.319,1.319,0,0,1,283.085,247.047Zm6.214-.577a1.314,1.314,0,0,1,1.182-1.427h0a1.316,1.316,0,0,1,1.436,1.182h0a1.323,1.323,0,0,1-1.191,1.435H290.6A1.312,1.312,0,0,1,289.3,246.47Zm6.215-.578a1.307,1.307,0,0,1,1.182-1.427h0a1.308,1.308,0,0,1,1.426,1.182h0a1.3,1.3,0,0,1-1.182,1.427h0a.668.668,0,0,1-.122.008h0A1.3,1.3,0,0,1,295.514,245.892Zm6.2-.578a1.308,1.308,0,0,1,1.182-1.426h0a1.315,1.315,0,0,1,1.435,1.181h0a1.32,1.32,0,0,1-1.19,1.435h-.122A1.311,1.311,0,0,1,301.719,245.314Zm6.206-.578a1.309,1.309,0,0,1,1.19-1.426h0a1.313,1.313,0,0,1,1.427,1.182h0a1.3,1.3,0,0,1-1.182,1.426h0a.637.637,0,0,1-.131.009h0A1.318,1.318,0,0,1,307.925,244.736Zm6.214-.577a1.3,1.3,0,0,1,1.182-1.427h0a1.3,1.3,0,0,1,1.427,1.182h0a1.3,1.3,0,0,1-1.182,1.427h0a.636.636,0,0,1-.123.008h0A1.311,1.311,0,0,1,314.139,244.159Zm6.206-.578a1.309,1.309,0,0,1,1.19-1.426h0a1.307,1.307,0,0,1,1.427,1.181h0a1.3,1.3,0,0,1-1.191,1.427h0a.581.581,0,0,1-.122.008h0A1.317,1.317,0,0,1,320.345,243.581Zm6.214-.578a1.316,1.316,0,0,1,1.181-1.435h0a1.316,1.316,0,0,1,1.427,1.191h0a1.3,1.3,0,0,1-1.181,1.426h0a.567.567,0,0,1-.123.009h0A1.3,1.3,0,0,1,326.559,243Zm6.206-.577a1.31,1.31,0,0,1,1.19-1.427h0a1.307,1.307,0,0,1,1.427,1.182h0a1.308,1.308,0,0,1-1.182,1.427h0a.721.721,0,0,1-.131.008h0A1.31,1.31,0,0,1,332.765,242.426Z"/><path class="cls-2" d="M340.283,243.038a1.164,1.164,0,0,1-.254-.026,1.129,1.129,0,0,1-.245-.078,1.143,1.143,0,0,1-.228-.123,1.182,1.182,0,0,1-.2-.158,1.79,1.79,0,0,1-.166-.2,1.149,1.149,0,0,1-.114-.227,1.12,1.12,0,0,1-.078-.246,1.209,1.209,0,0,1-.027-.253,1.269,1.269,0,0,1,.1-.508,1.06,1.06,0,0,1,.114-.219,1.234,1.234,0,0,1,.166-.2,1.99,1.99,0,0,1,.2-.166,1.911,1.911,0,0,1,.228-.123,2.19,2.19,0,0,1,.245-.07,1.242,1.242,0,0,1,.508,0,2.19,2.19,0,0,1,.245.07,1.389,1.389,0,0,1,.227.123,1.242,1.242,0,0,1,.2.166,1.31,1.31,0,0,1,0,1.855.872.872,0,0,1-.2.158.933.933,0,0,1-.227.123,1.129,1.129,0,0,1-.245.078A1.158,1.158,0,0,1,340.283,243.038Z"/><path class="cls-2" d="M172.628,297.707a1.369,1.369,0,0,1-.262-.026,1.69,1.69,0,0,1-.473-.193,1.694,1.694,0,0,1-.192-.166,1.328,1.328,0,0,1-.385-.928,1.312,1.312,0,0,1,.385-.928,1.694,1.694,0,0,1,.192-.166c.079-.044.149-.087.228-.122a2.432,2.432,0,0,1,.245-.071,1.328,1.328,0,0,1,1.19.359.923.923,0,0,1,.158.2.752.752,0,0,1,.122.219,1.366,1.366,0,0,1,.079.253,1.229,1.229,0,0,1,.026.254,1.314,1.314,0,0,1-1.313,1.313Z"/><path class="cls-2" d="M440.465,307.1a1.306,1.306,0,0,1-1.27-1.356h0a1.311,1.311,0,0,1,1.357-1.261h0a1.312,1.312,0,0,1,1.269,1.357h0a1.306,1.306,0,0,1-1.313,1.26h-.043Zm-6.092-.21a1.3,1.3,0,0,1-1.261-1.356h0a1.306,1.306,0,0,1,1.357-1.269h0a1.322,1.322,0,0,1,1.269,1.356h0a1.32,1.32,0,0,1-1.313,1.269h-.052Zm-6.083-.21a1.318,1.318,0,0,1-1.269-1.365h0a1.31,1.31,0,0,1,1.356-1.261h0a1.312,1.312,0,0,1,1.269,1.357h0a1.32,1.32,0,0,1-1.313,1.269h-.043Zm-6.092-.219a1.311,1.311,0,0,1-1.269-1.356h0a1.326,1.326,0,0,1,1.365-1.27h0a1.319,1.319,0,0,1,1.261,1.366h0a1.313,1.313,0,0,1-1.313,1.26H422.2Zm-6.092-.21a1.314,1.314,0,0,1-1.26-1.356h0a1.31,1.31,0,0,1,1.356-1.269h0a1.316,1.316,0,0,1,1.269,1.356h0a1.319,1.319,0,0,1-1.312,1.269h-.053Zm-6.083-.218a1.313,1.313,0,0,1-1.269-1.357h0a1.311,1.311,0,0,1,1.356-1.261h0a1.313,1.313,0,0,1,1.27,1.357h0a1.307,1.307,0,0,1-1.313,1.261h-.044Zm-6.092-.211a1.31,1.31,0,0,1-1.26-1.356h0a1.312,1.312,0,0,1,1.357-1.269h0a1.323,1.323,0,0,1,1.269,1.356h0a1.319,1.319,0,0,1-1.313,1.269h-.053Zm-6.083-.209a1.321,1.321,0,0,1-1.269-1.366h0a1.316,1.316,0,0,1,1.357-1.26h0a1.312,1.312,0,0,1,1.269,1.356h0a1.32,1.32,0,0,1-1.313,1.27h-.044Zm-6.091-.219a1.319,1.319,0,0,1-1.27-1.357h0a1.327,1.327,0,0,1,1.366-1.269h0a1.318,1.318,0,0,1,1.26,1.365h0a1.306,1.306,0,0,1-1.313,1.261h-.043Zm-6.084-.211a1.317,1.317,0,0,1-1.269-1.356h0a1.313,1.313,0,0,1,1.357-1.269h0a1.311,1.311,0,0,1,1.269,1.357h0a1.318,1.318,0,0,1-1.313,1.268h-.044Zm-6.091-.218a1.313,1.313,0,0,1-1.27-1.357h0a1.319,1.319,0,0,1,1.366-1.26h0a1.3,1.3,0,0,1,1.26,1.356h0a1.305,1.305,0,0,1-1.313,1.261h-.043Zm-6.092-.21a1.312,1.312,0,0,1-1.26-1.357h0a1.312,1.312,0,0,1,1.357-1.269h0a1.323,1.323,0,0,1,1.269,1.356h0a1.321,1.321,0,0,1-1.313,1.27h-.053Zm-6.083-.21a1.32,1.32,0,0,1-1.269-1.366h0a1.316,1.316,0,0,1,1.357-1.26h0a1.312,1.312,0,0,1,1.269,1.357h0a1.32,1.32,0,0,1-1.313,1.269h-.044Zm-6.092-.219a1.318,1.318,0,0,1-1.269-1.357h0a1.321,1.321,0,0,1,1.366-1.269h0a1.315,1.315,0,0,1,1.26,1.357h0a1.306,1.306,0,0,1-1.3,1.269h-.053Zm-6.083-.21a1.318,1.318,0,0,1-1.269-1.357h0a1.313,1.313,0,0,1,1.357-1.269h0a1.312,1.312,0,0,1,1.269,1.357h0a1.32,1.32,0,0,1-1.313,1.269h-.044Zm-6.091-.219a1.312,1.312,0,0,1-1.27-1.357h0a1.311,1.311,0,0,1,1.357-1.26h0a1.305,1.305,0,0,1,1.269,1.357h0a1.306,1.306,0,0,1-1.313,1.26h-.043Zm-6.092-.21a1.3,1.3,0,0,1-1.26-1.357h0a1.311,1.311,0,0,1,1.356-1.269h0a1.309,1.309,0,0,1,1.26,1.357h0a1.306,1.306,0,0,1-1.3,1.269h-.052Zm-6.083-.21a1.32,1.32,0,0,1-1.269-1.366h0a1.31,1.31,0,0,1,1.356-1.26h0a1.312,1.312,0,0,1,1.27,1.357h0a1.314,1.314,0,0,1-1.313,1.269h-.044Zm-6.092-.219a1.3,1.3,0,0,1-1.26-1.357h0a1.306,1.306,0,0,1,1.357-1.269h0a1.31,1.31,0,0,1,1.26,1.357h0a1.306,1.306,0,0,1-1.3,1.269h-.053Zm-6.083-.21a1.312,1.312,0,0,1-1.269-1.357h0a1.312,1.312,0,0,1,1.357-1.269h0a1.313,1.313,0,0,1,1.269,1.357h0a1.32,1.32,0,0,1-1.313,1.269h-.044Zm-6.092-.219a1.312,1.312,0,0,1-1.269-1.356h0a1.31,1.31,0,0,1,1.357-1.261h0a1.307,1.307,0,0,1,1.269,1.357h0a1.306,1.306,0,0,1-1.313,1.26H318.7Zm-6.091-.21a1.3,1.3,0,0,1-1.261-1.357h0a1.313,1.313,0,0,1,1.357-1.269h0a1.324,1.324,0,0,1,1.269,1.357h0a1.32,1.32,0,0,1-1.313,1.269h-.052Zm-6.083-.21a1.32,1.32,0,0,1-1.27-1.366h0a1.312,1.312,0,0,1,1.357-1.26h0a1.312,1.312,0,0,1,1.269,1.357h0a1.314,1.314,0,0,1-1.313,1.269h-.043Zm-6.092-.219a1.3,1.3,0,0,1-1.26-1.356h0a1.306,1.306,0,0,1,1.356-1.27h0a1.315,1.315,0,0,1,1.26,1.357h0a1.305,1.305,0,0,1-1.3,1.269h-.052Zm-6.083-.21a1.316,1.316,0,0,1-1.269-1.357h0a1.31,1.31,0,0,1,1.356-1.268h0a1.311,1.311,0,0,1,1.27,1.356h0a1.32,1.32,0,0,1-1.313,1.269h-.044Zm-6.092-.219a1.311,1.311,0,0,1-1.269-1.356h0a1.322,1.322,0,0,1,1.357-1.269h0a1.32,1.32,0,0,1,1.269,1.365h0a1.307,1.307,0,0,1-1.313,1.26h-.044Zm-6.092-.21a1.31,1.31,0,0,1-1.26-1.356h0a1.312,1.312,0,0,1,1.356-1.27h0a1.324,1.324,0,0,1,1.27,1.357h0a1.32,1.32,0,0,1-1.313,1.269h-.053Zm-6.083-.21a1.32,1.32,0,0,1-1.269-1.365h0a1.315,1.315,0,0,1,1.357-1.26h0a1.312,1.312,0,0,1,1.269,1.356h0a1.32,1.32,0,0,1-1.313,1.269h-.044Zm-6.092-.218a1.319,1.319,0,0,1-1.269-1.357h0a1.319,1.319,0,0,1,1.366-1.269h0a1.316,1.316,0,0,1,1.26,1.356h0a1.3,1.3,0,0,1-1.313,1.27h-.044Zm-6.082-.211a1.32,1.32,0,0,1-1.27-1.365h0a1.31,1.31,0,0,1,1.357-1.26h0a1.311,1.311,0,0,1,1.269,1.356h0a1.319,1.319,0,0,1-1.313,1.269h-.043Zm-6.092-.219a1.3,1.3,0,0,1-1.269-1.356h0a1.321,1.321,0,0,1,1.356-1.269h0a1.318,1.318,0,0,1,1.269,1.365h0a1.314,1.314,0,0,1-1.313,1.269h0A.075.075,0,0,1,257.817,300.691Zm-6.092-.209a1.31,1.31,0,0,1-1.26-1.357h0a1.31,1.31,0,0,1,1.356-1.269h0a1.31,1.31,0,0,1,1.261,1.356h0a1.307,1.307,0,0,1-1.3,1.27h-.053Zm-6.083-.211a1.319,1.319,0,0,1-1.269-1.365h0a1.31,1.31,0,0,1,1.357-1.26h0A1.31,1.31,0,0,1,247,299h0a1.319,1.319,0,0,1-1.312,1.269h-.044Zm-6.092-.218a1.318,1.318,0,0,1-1.269-1.357h0a1.32,1.32,0,0,1,1.365-1.269h0a1.316,1.316,0,0,1,1.261,1.356h0a1.306,1.306,0,0,1-1.3,1.27h-.053Zm-6.083-.21a1.318,1.318,0,0,1-1.269-1.357h0a1.311,1.311,0,0,1,1.357-1.269h0a1.312,1.312,0,0,1,1.269,1.356h0a1.321,1.321,0,0,1-1.313,1.27h-.044Zm-6.092-.219a1.307,1.307,0,0,1-1.269-1.357h0A1.324,1.324,0,0,1,227.463,297h0a1.32,1.32,0,0,1,1.269,1.365h0a1.3,1.3,0,0,1-1.313,1.261h-.044Zm-6.091-.21a1.305,1.305,0,0,1-1.261-1.357h0a1.313,1.313,0,0,1,1.357-1.269h0a1.3,1.3,0,0,1,1.26,1.356h0a1.306,1.306,0,0,1-1.3,1.27h-.052Zm-6.083-.21a1.32,1.32,0,0,1-1.269-1.366h0a1.31,1.31,0,0,1,1.356-1.26h0a1.311,1.311,0,0,1,1.269,1.357h0a1.32,1.32,0,0,1-1.313,1.269H215.2Zm-6.092-.219a1.318,1.318,0,0,1-1.269-1.357h0a1.32,1.32,0,0,1,1.365-1.269h0a1.318,1.318,0,0,1,1.261,1.365h0a1.31,1.31,0,0,1-1.305,1.261h-.052Zm-6.092-.21a1.315,1.315,0,0,1-1.26-1.357h0a1.312,1.312,0,0,1,1.357-1.269h0a1.31,1.31,0,0,1,1.268,1.356h0a1.32,1.32,0,0,1-1.312,1.27h-.053Zm-6.083-.219a1.312,1.312,0,0,1-1.269-1.357h0a1.324,1.324,0,0,1,1.357-1.269h0a1.326,1.326,0,0,1,1.269,1.366h0a1.306,1.306,0,0,1-1.313,1.26h-.044Zm-6.092-.21a1.31,1.31,0,0,1-1.26-1.357h0a1.307,1.307,0,0,1,1.357-1.269h0a1.318,1.318,0,0,1,1.269,1.357h0a1.32,1.32,0,0,1-1.313,1.269h-.053Zm-6.083-.21a1.32,1.32,0,0,1-1.269-1.366h0a1.311,1.311,0,0,1,1.357-1.26h0a1.312,1.312,0,0,1,1.269,1.357h0a1.32,1.32,0,0,1-1.313,1.269h-.044Zm-6.091-.219a1.316,1.316,0,0,1-1.269-1.356h0a1.32,1.32,0,0,1,1.365-1.27h0a1.317,1.317,0,0,1,1.26,1.366h0a1.312,1.312,0,0,1-1.312,1.26h-.044Z"/><path class="cls-2" d="M446.6,307.317a1.229,1.229,0,0,1-.254-.026,1.483,1.483,0,0,1-.254-.079,1.03,1.03,0,0,1-.218-.114,1.242,1.242,0,0,1-.2-.166,1.79,1.79,0,0,1-.166-.2,1.832,1.832,0,0,1-.122-.228,1.752,1.752,0,0,1-.07-.245,1.157,1.157,0,0,1-.027-.254,1.326,1.326,0,0,1,.385-.927,1.247,1.247,0,0,1,.2-.167,1.771,1.771,0,0,1,.218-.122,2.47,2.47,0,0,1,.254-.07,1.305,1.305,0,0,1,1.181.359,1.323,1.323,0,0,1,.386.927,1.157,1.157,0,0,1-.027.254,1.1,1.1,0,0,1-.078.245.853.853,0,0,1-.122.228,1.161,1.161,0,0,1-.159.2A1.324,1.324,0,0,1,446.6,307.317Z"/><path class="cls-2" d="M195.569,148.345a1.379,1.379,0,0,1-.263-.026c-.079-.018-.166-.044-.245-.07a1.823,1.823,0,0,1-.227-.123,1.209,1.209,0,0,1-.193-.166,1.312,1.312,0,0,1-.385-.928,1.33,1.33,0,0,1,.385-.928,1.3,1.3,0,0,1,1.182-.358,1.129,1.129,0,0,1,.245.078,1.108,1.108,0,0,1,.227.123,1.193,1.193,0,0,1,.2.157,1.334,1.334,0,0,1,.385.928,1.317,1.317,0,0,1-.385.928A1.33,1.33,0,0,1,195.569,148.345Z"/><path class="cls-2" d="M340.187,183.084a1.3,1.3,0,0,1-.963-1.576h0a1.3,1.3,0,0,1,1.584-.971h0a1.3,1.3,0,0,1,.963,1.575h0a1.315,1.315,0,0,1-1.269,1.016h0A1.314,1.314,0,0,1,340.187,183.084Zm-6.031-1.444a1.313,1.313,0,0,1-.971-1.585h0a1.312,1.312,0,0,1,1.575-.971h0a1.3,1.3,0,0,1,.972,1.584h0a1.306,1.306,0,0,1-1.269,1.007h0A1.19,1.19,0,0,1,334.156,181.64Zm-6.039-1.453a1.311,1.311,0,0,1-.971-1.584h0a1.3,1.3,0,0,1,1.584-.963h0a1.3,1.3,0,0,1,.963,1.575h0a1.3,1.3,0,0,1-1.27,1.007h0A1.182,1.182,0,0,1,328.117,180.187Zm-6.039-1.445a1.308,1.308,0,0,1-.972-1.584h0a1.313,1.313,0,0,1,1.585-.971h0a1.317,1.317,0,0,1,.971,1.584h0a1.322,1.322,0,0,1-1.278,1.006h0A1.14,1.14,0,0,1,322.078,178.742Zm-6.039-1.452a1.3,1.3,0,0,1-.972-1.584h0a1.317,1.317,0,0,1,1.584-.972h0a1.326,1.326,0,0,1,.972,1.584h0a1.316,1.316,0,0,1-1.278,1.007h0A1.182,1.182,0,0,1,316.039,177.29ZM310,175.845a1.318,1.318,0,0,1-.972-1.584h0a1.3,1.3,0,0,1,1.584-.971h0a1.317,1.317,0,0,1,.971,1.584h0a1.314,1.314,0,0,1-1.277,1.006h0A1.14,1.14,0,0,1,310,175.845Zm-6.04-1.452a1.3,1.3,0,0,1-.971-1.585h0a1.317,1.317,0,0,1,1.584-.971h0a1.326,1.326,0,0,1,.971,1.584h0a1.316,1.316,0,0,1-1.278,1.007h0A1.229,1.229,0,0,1,303.96,174.393Zm-6.039-1.444a1.321,1.321,0,0,1-.972-1.585h0a1.306,1.306,0,0,1,1.585-.972h0a1.319,1.319,0,0,1,.971,1.585h0a1.315,1.315,0,0,1-1.278,1.006h0A1.873,1.873,0,0,1,297.921,172.949Zm-6.039-1.453a1.313,1.313,0,0,1-.972-1.585h0a1.317,1.317,0,0,1,1.584-.971h0a1.311,1.311,0,0,1,.972,1.584h0a1.316,1.316,0,0,1-1.278,1.007h0A1.229,1.229,0,0,1,291.882,171.5Zm-6.04-1.454a1.3,1.3,0,0,1-.971-1.575h0a1.3,1.3,0,0,1,1.584-.972h0a1.32,1.32,0,0,1,.972,1.585h0a1.325,1.325,0,0,1-1.278,1.006h0A1.2,1.2,0,0,1,285.842,170.042ZM279.8,168.6a1.311,1.311,0,0,1-.972-1.584h0a1.311,1.311,0,0,1,1.585-.971h0a1.314,1.314,0,0,1,.971,1.584h0a1.315,1.315,0,0,1-1.278,1.006h0A1.278,1.278,0,0,1,279.8,168.6Zm-6.039-1.453a1.306,1.306,0,0,1-.972-1.575h0a1.309,1.309,0,0,1,1.585-.971h0a1.305,1.305,0,0,1,.971,1.575h0a1.324,1.324,0,0,1-1.278,1.015h0A1.2,1.2,0,0,1,273.764,167.145Zm-6.039-1.444a1.32,1.32,0,0,1-.972-1.584h0a1.318,1.318,0,0,1,1.584-.971h0a1.311,1.311,0,0,1,.972,1.584h0a1.316,1.316,0,0,1-1.278,1.006h0A1.229,1.229,0,0,1,267.725,165.7Zm-6.04-1.453a1.317,1.317,0,0,1-.971-1.584h0a1.3,1.3,0,0,1,1.584-.962h0a1.306,1.306,0,0,1,.972,1.575h0a1.316,1.316,0,0,1-1.278,1.006h0A1.237,1.237,0,0,1,261.685,164.248Zm-6.039-1.444a1.327,1.327,0,0,1-.972-1.584h0a1.321,1.321,0,0,1,1.585-.972h0a1.311,1.311,0,0,1,.971,1.585h0a1.324,1.324,0,0,1-1.277,1.006h0A1.877,1.877,0,0,1,255.646,162.8Zm-6.039-1.453a1.318,1.318,0,0,1-.972-1.584h0a1.327,1.327,0,0,1,1.584-.972h0a1.32,1.32,0,0,1,.972,1.585h0a1.308,1.308,0,0,1-1.278,1.006h0A1.229,1.229,0,0,1,249.607,161.351Zm-6.04-1.453a1.312,1.312,0,0,1-.971-1.575h0a1.313,1.313,0,0,1,1.584-.972h0a1.306,1.306,0,0,1,.972,1.585h0a1.318,1.318,0,0,1-1.278,1.006h0A1.27,1.27,0,0,1,243.567,159.9Zm-6.039-1.444a1.317,1.317,0,0,1-.971-1.584h0a1.327,1.327,0,0,1,1.584-.972h0a1.32,1.32,0,0,1,.972,1.585h0a1.31,1.31,0,0,1-1.278,1.006h0A1.286,1.286,0,0,1,237.528,158.454ZM231.489,157a1.3,1.3,0,0,1-.963-1.575h0a1.3,1.3,0,0,1,1.576-.972h0a1.3,1.3,0,0,1,.971,1.584h0a1.315,1.315,0,0,1-1.269,1.007h0A1.314,1.314,0,0,1,231.489,157Zm-6.039-1.444a1.305,1.305,0,0,1-.963-1.584h0a1.311,1.311,0,0,1,1.575-.971h0a1.3,1.3,0,0,1,.972,1.583h0a1.308,1.308,0,0,1-1.278,1.007h0A1.278,1.278,0,0,1,225.45,155.557Zm-6.039-1.453a1.3,1.3,0,0,1-.963-1.584h0a1.3,1.3,0,0,1,1.575-.963h0a1.3,1.3,0,0,1,.972,1.584h0a1.307,1.307,0,0,1-1.269,1h0A1.253,1.253,0,0,1,219.411,154.1Zm-6.031-1.444a1.3,1.3,0,0,1-.971-1.584h0a1.306,1.306,0,0,1,1.575-.972h0a1.306,1.306,0,0,1,.972,1.585h0a1.305,1.305,0,0,1-1.269,1.006h0A1.19,1.19,0,0,1,213.38,152.66Zm-6.039-1.453a1.3,1.3,0,0,1-.972-1.584h0a1.319,1.319,0,0,1,1.585-.972h0a1.314,1.314,0,0,1,.962,1.585h0a1.3,1.3,0,0,1-1.269,1.006h0A1.14,1.14,0,0,1,207.341,151.207Zm-6.04-1.444a1.313,1.313,0,0,1-.971-1.584h0a1.311,1.311,0,0,1,1.584-.972h0a1.32,1.32,0,0,1,.972,1.585h0a1.324,1.324,0,0,1-1.278,1.006h0A1.2,1.2,0,0,1,201.3,149.763Z"/><path class="cls-2" d="M346.541,184.572a1.294,1.294,0,0,1-.927-.385.931.931,0,0,1-.167-.2,1.113,1.113,0,0,1-.122-.218.9.9,0,0,1-.07-.254,1.163,1.163,0,0,1-.027-.254,1.323,1.323,0,0,1,.386-.928,1.159,1.159,0,0,1,.192-.166,1.08,1.08,0,0,1,.228-.114,1.358,1.358,0,0,1,.244-.079,1.286,1.286,0,0,1,.517,0,1.368,1.368,0,0,1,.245.079,1.049,1.049,0,0,1,.227.114,1.715,1.715,0,0,1,.2.166,1.358,1.358,0,0,1,.376.928,2.271,2.271,0,0,1-.017.254,1.483,1.483,0,0,1-.079.254,1.069,1.069,0,0,1-.123.218,1.247,1.247,0,0,1-.157.2A1.328,1.328,0,0,1,346.541,184.572Z"/><path class="cls-2" d="M214.159,227.7a1.316,1.316,0,0,1-1.313-1.312,1.211,1.211,0,0,1,.027-.254,1.1,1.1,0,0,1,.078-.245,1.13,1.13,0,0,1,.114-.228,1.7,1.7,0,0,1,.167-.2,1.354,1.354,0,0,1,1.855,0,1.326,1.326,0,0,1,.385.928,1.31,1.31,0,0,1-.385.927,1.205,1.205,0,0,1-.2.167,1.755,1.755,0,0,1-.218.122c-.088.026-.167.053-.254.07A1.158,1.158,0,0,1,214.159,227.7Z"/><path class="cls-2" d="M218.868,226.251a1.313,1.313,0,0,1,1.269-1.357h0a1.327,1.327,0,0,1,1.357,1.278h0a1.311,1.311,0,0,1-1.278,1.348h-.035A1.308,1.308,0,0,1,218.868,226.251Zm6.013-.175a1.324,1.324,0,0,1,1.278-1.356h0A1.312,1.312,0,0,1,227.507,226h0a1.312,1.312,0,0,1-1.278,1.347h-.035A1.308,1.308,0,0,1,224.881,226.076Zm6.022-.175a1.3,1.3,0,0,1,1.269-1.348h0a1.3,1.3,0,0,1,1.348,1.269h0a1.3,1.3,0,0,1-1.269,1.348h-.044A1.306,1.306,0,0,1,230.9,225.9Zm6.013-.175a1.312,1.312,0,0,1,1.278-1.348h0a1.305,1.305,0,0,1,1.348,1.27h0A1.312,1.312,0,0,1,238.263,227h-.034A1.308,1.308,0,0,1,236.916,225.726Zm6.013-.175a1.311,1.311,0,0,1,1.277-1.348h0a1.3,1.3,0,0,1,1.348,1.269h0a1.311,1.311,0,0,1-1.269,1.357h-.044A1.327,1.327,0,0,1,242.929,225.551Zm6.022-.175a1.312,1.312,0,0,1,1.277-1.348h0a1.3,1.3,0,0,1,1.348,1.269h0a1.325,1.325,0,0,1-1.278,1.357h-.034A1.309,1.309,0,0,1,248.951,225.376Zm6.021-.175a1.3,1.3,0,0,1,1.269-1.348h0a1.311,1.311,0,0,1,1.348,1.278h0a1.308,1.308,0,0,1-1.269,1.348h-.044A1.3,1.3,0,0,1,254.972,225.2Zm6.013-.175a1.313,1.313,0,0,1,1.278-1.348h0a1.317,1.317,0,0,1,1.348,1.278h0a1.324,1.324,0,0,1-1.278,1.348H262.3A1.309,1.309,0,0,1,260.985,225.026Zm6.013-.175a1.323,1.323,0,0,1,1.278-1.348h0a1.312,1.312,0,0,1,1.348,1.278h0a1.311,1.311,0,0,1-1.269,1.348h-.044A1.323,1.323,0,0,1,267,224.851Zm6.022-.175a1.31,1.31,0,0,1,1.269-1.348h0a1.325,1.325,0,0,1,1.357,1.278h0a1.313,1.313,0,0,1-1.278,1.348h-.035A1.309,1.309,0,0,1,273.02,224.676Zm6.013-.175a1.322,1.322,0,0,1,1.278-1.348h0a1.312,1.312,0,0,1,1.348,1.278h0a1.306,1.306,0,0,1-1.269,1.348h-.044A1.316,1.316,0,0,1,279.033,224.5Zm6.022-.166a1.317,1.317,0,0,1,1.269-1.357h0a1.325,1.325,0,0,1,1.357,1.278h0A1.313,1.313,0,0,1,286.4,225.6h-.034A1.308,1.308,0,0,1,285.055,224.335Zm6.012-.176a1.325,1.325,0,0,1,1.278-1.356h0a1.311,1.311,0,0,1,1.348,1.278h0a1.3,1.3,0,0,1-1.269,1.348h-.044A1.315,1.315,0,0,1,291.067,224.159Zm6.023-.175a1.316,1.316,0,0,1,1.268-1.356h0a1.324,1.324,0,0,1,1.357,1.278h0a1.311,1.311,0,0,1-1.278,1.347h-.044A1.3,1.3,0,0,1,297.09,223.984Zm6.012-.175a1.313,1.313,0,0,1,1.278-1.348h0a1.3,1.3,0,0,1,1.348,1.269h0a1.31,1.31,0,0,1-1.269,1.348h0a.076.076,0,0,1-.044.009h0A1.322,1.322,0,0,1,303.1,223.809Zm6.022-.175a1.306,1.306,0,0,1,1.269-1.348h0a1.312,1.312,0,0,1,1.357,1.27h0a1.325,1.325,0,0,1-1.278,1.356h-.035A1.315,1.315,0,0,1,309.124,223.634Zm6.013-.175a1.312,1.312,0,0,1,1.278-1.348h0a1.3,1.3,0,0,1,1.348,1.269h0a1.325,1.325,0,0,1-1.278,1.357h-.035A1.321,1.321,0,0,1,315.137,223.459Zm6.022-.175a1.3,1.3,0,0,1,1.269-1.348h0a1.306,1.306,0,0,1,1.348,1.27h0a1.312,1.312,0,0,1-1.27,1.356h-.043A1.313,1.313,0,0,1,321.159,223.284Zm6.013-.175a1.312,1.312,0,0,1,1.277-1.348h0a1.312,1.312,0,0,1,1.348,1.278h0a1.322,1.322,0,0,1-1.277,1.348h-.035A1.321,1.321,0,0,1,327.172,223.109Zm6.022-.175a1.3,1.3,0,0,1,1.269-1.348h0a1.325,1.325,0,0,1,1.356,1.278h0a1.322,1.322,0,0,1-1.278,1.348H334.5A1.307,1.307,0,0,1,333.194,222.934Zm6.012-.175a1.318,1.318,0,0,1,1.278-1.348h0a1.322,1.322,0,0,1,1.348,1.278h0a1.322,1.322,0,0,1-1.278,1.348h-.035A1.31,1.31,0,0,1,339.206,222.759Z"/><path class="cls-2" d="M346.541,223.862a1.316,1.316,0,0,1-1.313-1.313,1.218,1.218,0,0,1,.027-.254.774.774,0,0,1,.07-.245,1.155,1.155,0,0,1,.122-.227,1.135,1.135,0,0,1,.167-.2,1.207,1.207,0,0,1,.192-.166,1.08,1.08,0,0,1,.228-.114,1.358,1.358,0,0,1,.244-.079,1.329,1.329,0,0,1,1.191.359,1.65,1.65,0,0,1,.157.2,1.108,1.108,0,0,1,.123.227,1.189,1.189,0,0,1,.079.245,2.407,2.407,0,0,1,.017.254,1.3,1.3,0,0,1-1.3,1.313Z"/><path class="cls-2" d="M202.977,289.3c-1.026-2.09-.749,1.69-1.191-.96a49.319,49.319,0,0,1-.66-8.115,50.278,50.278,0,0,1,.372-6.118,37.843,37.843,0,0,1,1.173-5.832,17.621,17.621,0,0,1,2.162-4.866,4.49,4.49,0,0,1,3.154-2.282l.669-.053,12.646-.994c1.6.142,2.477,1.615,2.63,4.419a5.964,5.964,0,0,1-.785,3.163A2.373,2.373,0,0,1,221.3,269l-12.08.656a3.163,3.163,0,0,0-2.234,1.977,14.153,14.153,0,0,0-1.272,3.983,26.615,26.615,0,0,0-.6,4.5,40.614,40.614,0,0,0-.1,5.416Z"/><path class="cls-2" d="M234.248,291.008a6.538,6.538,0,0,1-5.317-2.848,17.594,17.594,0,0,1-2.545-5.864,28.426,28.426,0,0,1-.776-6.618,30.4,30.4,0,0,1,.757-6.807,18.465,18.465,0,0,1,2.545-6.047,6.139,6.139,0,0,1,4.608-3.037l13.552-1.042a5.728,5.728,0,0,1,5.068,2.46,16.624,16.624,0,0,1,2.91,6.118,29.563,29.563,0,0,1,.881,7.27,28.972,28.972,0,0,1-.9,7.189,18.568,18.568,0,0,1-2.909,6.327,7.209,7.209,0,0,1-5.824,2.962Zm-.89-22q-.765.04-1.327,1.132a9.006,9.006,0,0,0-.819,2.5,15.227,15.227,0,0,0,0,5.6,8.428,8.428,0,0,0,.819,2.442q.563,1.052,1.327,1.105l13.888-.263a1.982,1.982,0,0,0,1.436-1.207,8.936,8.936,0,0,0,.9-2.6,15.722,15.722,0,0,0,.285-2.984,15.064,15.064,0,0,0-.285-2.893,8.38,8.38,0,0,0-.9-2.535q-.612-1.075-1.436-1.032Z"/><path class="cls-2" d="M293.17,259.826a5.452,5.452,0,0,1-1.078,3.4,3.315,3.315,0,0,1-2.512,1.41L268.2,265.833a1.46,1.46,0,0,0-1.007.431,2.855,2.855,0,0,0-.573.816,1.554,1.554,0,0,0,0,1.494,2.09,2.09,0,0,0,.573.72,1.728,1.728,0,0,0,1.007.365l16.335-.762a8.123,8.123,0,0,1,5.469,1.679,9.984,9.984,0,0,1,3.138,4.241,14.022,14.022,0,0,1,.947,5.03,13.765,13.765,0,0,1-.974,4.99,10.91,10.91,0,0,1-3.137,4.372,7.988,7.988,0,0,1-5.443,1.829,6.688,6.688,0,0,1-.829.074l-19.174-.094a2.723,2.723,0,0,1-2.231-1.231,4.861,4.861,0,0,1-.909-2.99,5.1,5.1,0,0,1,.932-3.111,2.724,2.724,0,0,1,2.208-1.218l20.419-.324a1.731,1.731,0,0,0,1.279-.334,3,3,0,0,0,.76-.875,1.944,1.944,0,0,0,.263-.946,2.44,2.44,0,0,0-.263-.818,2.185,2.185,0,0,0-.76-.922,2.58,2.58,0,0,0-1.279-.4l-16.415.424a6.388,6.388,0,0,1-4.57-1.7,9.385,9.385,0,0,1-2.527-3.945,14.14,14.14,0,0,1,.023-9.114,10.549,10.549,0,0,1,2.527-4.093,7.528,7.528,0,0,1,4.547-2.167,5.325,5.325,0,0,1,.724-.13l20.319-1.558a2.9,2.9,0,0,1,2.539,1.114A4.684,4.684,0,0,1,293.17,259.826Z"/><path class="cls-2" d="M339.589,256.807a5.676,5.676,0,0,1-1.312,3.763,4.175,4.175,0,0,1-3.056,1.571l-25.858,1.444a1.857,1.857,0,0,0-1.212.478,3.223,3.223,0,0,0-.689.9,1.852,1.852,0,0,0-.229.79,1.828,1.828,0,0,0,.229.849,2.339,2.339,0,0,0,.689.786,2.193,2.193,0,0,0,1.212.395l19.735-.92a10.533,10.533,0,0,1,6.641,1.823,11.094,11.094,0,0,1,3.817,4.665,14.167,14.167,0,0,1,1.154,5.548,13.951,13.951,0,0,1-1.187,5.508,12.141,12.141,0,0,1-3.817,4.824,10.343,10.343,0,0,1-6.608,2.015,9.206,9.206,0,0,1-1,.081l-23.141-.114a3.362,3.362,0,0,1-2.678-1.35,5.006,5.006,0,0,1-1.091-3.275,5.255,5.255,0,0,1,1.119-3.408,3.361,3.361,0,0,1,2.65-1.338l24.65-.392a2.26,2.26,0,0,0,1.551-.369,3.417,3.417,0,0,0,.923-.966,2,2,0,0,0,.319-1.043,2.493,2.493,0,0,0-.319-.9,2.456,2.456,0,0,0-.923-1.014,3.354,3.354,0,0,0-1.551-.434l-19.834.513a8.106,8.106,0,0,1-5.495-1.852,10.176,10.176,0,0,1-3.034-4.313,14.216,14.216,0,0,1,.028-9.982,11.531,11.531,0,0,1,3.034-4.5,9.487,9.487,0,0,1,5.467-2.412,7.067,7.067,0,0,1,.871-.149l24.582-1.885a3.678,3.678,0,0,1,3.089,1.207A4.838,4.838,0,0,1,339.589,256.807Z"/><path class="cls-2" d="M347.139,240.85a6.781,6.781,0,0,1,1.633-4.458,5.953,5.953,0,0,1,3.994-2.246,4.8,4.8,0,0,1,4.058,1.353,5.566,5.566,0,0,1,1.7,4.188,6.9,6.9,0,0,1-1.7,4.627,5.9,5.9,0,0,1-4.058,2.181,4.788,4.788,0,0,1-3.994-1.43A5.692,5.692,0,0,1,347.139,240.85Z"/><path class="cls-2" d="M352.905,249.792a3.912,3.912,0,0,1,3.215,1.517,6.341,6.341,0,0,1,1.411,4.034v31.486c-.283,3.64-1.833,5.6-4.626,5.881a4.3,4.3,0,0,1-3.346-1.682,6.212,6.212,0,0,1-1.4-4.158v-30.9a7.042,7.042,0,0,1,1.435-4.26A4.572,4.572,0,0,1,352.905,249.792Z"/><path class="cls-2" d="M393.344,247.707a28.6,28.6,0,0,1,8.044.5,29.286,29.286,0,0,1,7.807,2.807,22.242,22.242,0,0,1,6.777,5.6,14.717,14.717,0,0,1,3.262,8.913v20.859c-.34,3.916-2.207,6.023-5.568,6.324a5.4,5.4,0,0,1-4.019-1.81,6.246,6.246,0,0,1-1.68-4.465V268.982a7.5,7.5,0,0,0-1.914-4.849,13.06,13.06,0,0,0-3.866-2.9,17.876,17.876,0,0,0-8.843-1.775,18.242,18.242,0,0,0-4.406.805,18.646,18.646,0,0,0-4.144,1.881,13.978,13.978,0,0,0-3.562,3.147,7.935,7.935,0,0,0-1.726,4.753v16.515c-.245,3.629-1.823,5.583-4.713,5.863a4.5,4.5,0,0,1-3.458-1.677,6.056,6.056,0,0,1-1.448-4.144V267.641a15.823,15.823,0,0,1,2.69-8.437,23.516,23.516,0,0,1,5.833-6.008,30.82,30.82,0,0,1,7.132-3.766A29.158,29.158,0,0,1,393.344,247.707Z"/><path class="cls-2" d="M576.535,255.985c-2.211-20.836-24.394-28.885-27.577-29.086a7.426,7.426,0,0,0-3.34.432c-1.353.427-2.76,2.624-2.76,2.624l-17.649,24.339-.681.939,0,0-5.523,7.517-11.814,16.079.372-31.277a6.929,6.929,0,0,0-2.449-5.258,7.314,7.314,0,0,0-5.529-1.722L454.975,244.1c-5.74.666-10,2.465-12.857,5.381a26.248,26.248,0,0,0-6.083,9.493,30.351,30.351,0,0,0-.046,20.721,22.968,22.968,0,0,0,6.082,9.034,16.069,16.069,0,0,0,11.131,4.191l25.829.083a6.568,6.568,0,0,0,5.069-2.24,7.177,7.177,0,0,0,2.182-5.321,7.34,7.34,0,0,0-2.128-5.341A6.7,6.7,0,0,0,479.031,278l-26.221.551a3.97,3.97,0,0,1-3.22-1.584,10.2,10.2,0,0,1-1.982-3.776,15.22,15.22,0,0,1-.626-4.278,16.088,16.088,0,0,1,.626-4.432,11.2,11.2,0,0,1,1.982-3.926,4.719,4.719,0,0,1,3.22-1.934l36.442-1.993q2.883-.042,2.887,2.813V283.1c0,4.342.822,14.312-1.326,17.285-3.378,4.675-16.524,7.46-21.163,8.982a88.016,88.016,0,0,0-14.052,6.009c-5.474,3.038-9.731,7.177-11.552,11.752-1.98,4.975-2.075,12.637-.376,17.836,1.733,5.3,5.314,11.314,16.08,12.775,13.353,1.812,25.614-.922,33.409-8.173,7.831-7.284,10.767-17.142,11.987-30.3.454-4.9.156-2.6.579-6.017l.265-6.338,12.233-16.844,12.4-16.333,6.544-8.62c.3.233.584.452.806.639,8.922,7.488,18.59,16.974,8.908,29.236-9.393,11.895,4.26,16.919,15.969,2.491C572.627,285.43,578.594,275.386,576.535,255.985Z"/><path class="cls-2" d="M177.563,290.849a4.789,4.789,0,0,1-4-2.47,16.616,16.616,0,0,1-1.919-5.1,28.279,28.279,0,0,1-.586-5.755,30.133,30.133,0,0,1,.572-5.913,17.239,17.239,0,0,1,1.919-5.235,4.558,4.558,0,0,1,3.466-2.6l11.945-.915q.915-.069,1.538,1.124a5.654,5.654,0,0,1,.659,2.874,6.464,6.464,0,0,1-.642,2.989q-.641,1.245-1.555,1.291l-12.066.632q-.576.03-1,.973a8.593,8.593,0,0,0-.617,2.165,15.256,15.256,0,0,0,0,4.863,8.115,8.115,0,0,0,.617,2.121q.422.913,1,.962l12.066-.225q.915-.016,1.555,1.181a6.183,6.183,0,0,1,.642,2.944,5.92,5.92,0,0,1-.659,2.92q-.624,1.239-1.538,1.233Z"/><path class="cls-3" d="M393.44,318.341a4.293,4.293,0,0,1,1.015-2.792,3.325,3.325,0,0,1,2.426-1.265l21.5-1.2a4.111,4.111,0,0,1,.727.023l.366-.021a12.52,12.52,0,0,1,7.178,1.7,11.437,11.437,0,0,1,4.182,4.357,10.845,10.845,0,0,1,1.259,5.142,11.622,11.622,0,0,1-1.373,5.246A12.027,12.027,0,0,1,426.412,334a13.171,13.171,0,0,1-7.26,1.89l-16.269-.47a3.107,3.107,0,0,0-1.692.488,2.784,2.784,0,0,0-1,1.186,3.188,3.188,0,0,0-.332,1.146l-.017,1.245a1.867,1.867,0,0,0,.325,1.2,1.631,1.631,0,0,0,1.346.427l25.582,1.322a4.215,4.215,0,0,1,3.053,1.489,4.357,4.357,0,0,1,1.284,3.215,4.064,4.064,0,0,1-1.34,3.072,3.942,3.942,0,0,1-3.121,1.038l-28.414-2.373a6.106,6.106,0,0,1-4.349-1.96,6.942,6.942,0,0,1-1.456-4.641l.061-4.323a11.64,11.64,0,0,1,1.036-4.619,10.332,10.332,0,0,1,3.355-4.035,10.514,10.514,0,0,1,6.112-1.923l16.319-.047a4.081,4.081,0,0,0,1.948-.553,3.542,3.542,0,0,0,1.169-1.106,2.448,2.448,0,0,0,.394-1.266,2.338,2.338,0,0,0-.359-1.257,3.249,3.249,0,0,0-1.137-1.074,3.921,3.921,0,0,0-1.933-.5l-22.951.556a2.851,2.851,0,0,1-2.367-1.1A3.722,3.722,0,0,1,393.44,318.341Z"/><path class="cls-3" d="M370.779,339.628l-4.172-.218a3.424,3.424,0,0,1-2.459-1.578,8.862,8.862,0,0,1-1.357-3.17,15.569,15.569,0,0,1-.368-3.592,14.654,14.654,0,0,1,.488-3.554,9.636,9.636,0,0,1,1.446-3.131,3.354,3.354,0,0,1,2.484-1.534l4.176-.1.1-7.024-4.652.26-.746.042a6.219,6.219,0,0,0-4.5,2.879,16.959,16.959,0,0,0-2.545,5.7,28.345,28.345,0,0,0-.821,6.4,29.393,29.393,0,0,0,.621,6.444,16.229,16.229,0,0,0,2.382,5.768,6.288,6.288,0,0,0,4.437,2.98l5.387.453Z"/><path class="cls-3" d="M387.5,325.9a21.823,21.823,0,0,0-1.647-5.073,12.422,12.422,0,0,0-2.922-4,5.611,5.611,0,0,0-4.054-1.538l-.834.046-4.9.274-.1,7.089,4.247-.1a3.5,3.5,0,0,1,2.748,1.515,9.484,9.484,0,0,1,1.589,3.351,14.562,14.562,0,0,1,.465,3.881,15.487,15.487,0,0,1-.553,3.895,8.72,8.72,0,0,1-1.683,3.305,3.59,3.59,0,0,1-2.812,1.41l-4.242-.222-.1,7.088,5.725.481a6.552,6.552,0,0,0,5.28-2.5,16.326,16.326,0,0,0,3.213-6.1,27.505,27.505,0,0,0,1.076-7.27A26.645,26.645,0,0,0,387.5,325.9Z"/><rect class="cls-4" x="464.5" y="464.5" width="196" height="375" transform="translate(1214.5 89.5) rotate(90)"/><rect class="cls-5" x="89.5" y="464.5" width="196" height="375" transform="translate(839.5 464.5) rotate(90)"/><path d="M139.82,493.883q1.548-3.681,7.312-7.795a53.712,53.712,0,0,0,6.475-5.129,7.577,7.577,0,0,0,2.26-5.281,5.851,5.851,0,0,0-1.295-3.885,4.563,4.563,0,0,0-3.707-1.549q-3.3,0-4.494,2.463a12.221,12.221,0,0,0-.813,4.52h-7.033a17.739,17.739,0,0,1,1.7-7.592q2.9-5.51,10.294-5.51,5.844,0,9.3,3.237a11.192,11.192,0,0,1,3.457,8.57,11.587,11.587,0,0,1-2.443,7.261,24.283,24.283,0,0,1-5.265,4.7l-2.9,2.056q-2.721,1.929-3.724,2.793a8.164,8.164,0,0,0-1.689,2.006h16.073v6.373H138.119A17.279,17.279,0,0,1,139.82,493.883Z"/><path d="M192.2,469q2.831,4.952,2.831,14.066T192.2,497.107q-2.832,4.927-9.865,4.926t-9.864-4.926q-2.831-4.926-2.831-14.041T172.469,469q2.832-4.952,9.864-4.951T192.2,469Zm-14.13,23.778q1.041,3.365,4.265,3.365t4.228-3.365a35.917,35.917,0,0,0,1-9.712,35.518,35.518,0,0,0-1-9.851,4.1,4.1,0,0,0-4.228-3.2,4.156,4.156,0,0,0-4.265,3.2,34.294,34.294,0,0,0-1.041,9.851A34.679,34.679,0,0,0,178.068,492.778Z"/><path d="M200.539,475.729V470.8a31.976,31.976,0,0,0,4.786-.457,6.75,6.75,0,0,0,3.546-1.93,6.365,6.365,0,0,0,1.419-2.641,6.1,6.1,0,0,0,.278-1.472h6.043v36.816H209.2v-25.39Z"/><path d="M228.625,485.3a8.881,8.881,0,0,1,4.1-3.783,8.6,8.6,0,0,1-3.478-3.847,10.728,10.728,0,0,1-.8-3.872,9.033,9.033,0,0,1,3.027-6.843q3.03-2.832,8.551-2.831t8.55,2.831A9.031,9.031,0,0,1,251.6,473.8a10.762,10.762,0,0,1-.8,3.872,7.391,7.391,0,0,1-3.466,3.593,10.227,10.227,0,0,1,4.108,4.037,11.484,11.484,0,0,1,1.377,5.611,10.5,10.5,0,0,1-3.444,7.909q-3.444,3.262-9.62,3.263t-9.353-3.263a10.918,10.918,0,0,1-3.177-7.909A11.328,11.328,0,0,1,228.625,485.3Zm7.524,9.344a5.819,5.819,0,0,0,7.795,0,7.053,7.053,0,0,0-.026-8.494,5.864,5.864,0,0,0-7.744,0,7.055,7.055,0,0,0-.025,8.494Zm.46-16.758a4.558,4.558,0,0,0,3.425,1.269,4.505,4.505,0,0,0,3.424-1.269,4.558,4.558,0,0,0,1.209-3.276,4.666,4.666,0,0,0-1.209-3.415,4.582,4.582,0,0,0-3.424-1.231,4.272,4.272,0,0,0-4.659,4.646A4.5,4.5,0,0,0,236.609,477.887Z"/><path d="M271.424,494.206c-4.4,0-5.95.1-6.25.1-.5,0-.55-.05-.55-.55v-3.95c0-.451.05-.5.55-.5.3,0,1.85.1,6.25.1h1.2v-7c0-2.85-.1-4.2-.1-4.5,0-.5.051-.55.6-.55.3,0,2,.1,6.85.1h6.4V470.8h-10.25a45.811,45.811,0,0,1-5.851,7.15c-.5.551-.8.8-1.05.8s-.5-.3-1-.95a10.022,10.022,0,0,0-2.8-2.7,36.752,36.752,0,0,0,9.25-12.1,15.986,15.986,0,0,0,1.3-3.65c1.8.349,3.45.7,4.8,1.1.6.2.9.45.9.851s-.25.6-.6.95a4.877,4.877,0,0,0-1.25,1.8l-1,2.15h20.651c4.851,0,6.551-.1,6.851-.1.5,0,.549.05.549.55v3.7c0,.5-.049.55-.549.55-.3,0-2-.1-6.851-.1h-7.7v6.65h5.349c4.9,0,6.551-.1,6.851-.1.45,0,.5.05.5.55v3.751c0,.5-.05.55-.5.55-.3,0-1.95-.1-6.851-.1h-5.349v7.3h10.6c4.4,0,5.951-.1,6.25-.1.5,0,.55.049.55.5v3.95c0,.5-.05.55-.55.55-.3,0-1.849-.1-6.25-.1h-10.6v2.449c0,5.251.1,7.9.1,8.152,0,.5-.049.549-.549.549h-4.451c-.549,0-.6-.049-.6-.549,0-.3.1-2.9.1-8.152v-2.449Zm14.951-4.8v-7.3h-8.451v7.3Z"/><path d="M320.541,475.985v-4.736a30.8,30.8,0,0,0,4.6-.439,6.484,6.484,0,0,0,3.409-1.856,6.119,6.119,0,0,0,1.365-2.539,5.854,5.854,0,0,0,.267-1.416H336v35.4h-7.129V475.985Z"/><path d="M350.58,493.441q1.488-3.54,7.031-7.495a51.58,51.58,0,0,0,6.225-4.931,7.288,7.288,0,0,0,2.173-5.078,5.627,5.627,0,0,0-1.245-3.736,4.384,4.384,0,0,0-3.564-1.489q-3.175,0-4.322,2.368a11.746,11.746,0,0,0-.781,4.346h-6.763a17.08,17.08,0,0,1,1.638-7.3q2.787-5.3,9.9-5.3,5.62,0,8.944,3.112a10.761,10.761,0,0,1,3.324,8.241,11.142,11.142,0,0,1-2.348,6.982,23.391,23.391,0,0,1-5.063,4.517l-2.789,1.977q-2.618,1.857-3.582,2.686a7.853,7.853,0,0,0-1.623,1.928h15.454V500.4H348.944A16.61,16.61,0,0,1,350.58,493.441Z"/><path d="M419.742,488.806c0,3.45.149,7.25.149,10,0,2.15-.35,3.45-1.6,4.65-1.3,1.2-3,1.45-8.3,1.45-1.549,0-1.65.05-1.849-1.55a13.8,13.8,0,0,0-1.3-4.2c2.15.2,3.75.25,5.7.25a1.56,1.56,0,0,0,1.75-1.75v-8.751H396.439c-.949,6.95-3.1,10.851-7.2,15.5-.5.55-.75.85-1.051.85s-.6-.25-1.15-.8a11.435,11.435,0,0,0-3.6-2.35c6.6-6.15,8.25-10.4,8.25-25.6v-7.351c0-4.251-.1-6.5-.1-6.8,0-.55.051-.6.551-.6.349,0,2,.1,6.65.1h13.9c4.651,0,6.25-.1,6.6-.1.5,0,.551.05.551.6,0,.3-.1,2.549-.1,6.8Zm-5.451-4.751V477.7h-17.15c-.051,2.351-.1,4.451-.2,6.351ZM397.141,466.8v6.05h17.15V466.8Z"/><path d="M438.387,493.441q1.488-3.54,7.031-7.495a51.741,51.741,0,0,0,6.227-4.931,7.294,7.294,0,0,0,2.171-5.078,5.626,5.626,0,0,0-1.244-3.736,4.385,4.385,0,0,0-3.564-1.489q-3.175,0-4.322,2.368a11.742,11.742,0,0,0-.782,4.346h-6.761a17.067,17.067,0,0,1,1.636-7.3q2.787-5.3,9.9-5.3,5.619,0,8.943,3.112a10.758,10.758,0,0,1,3.324,8.241,11.148,11.148,0,0,1-2.347,6.982,23.391,23.391,0,0,1-5.063,4.517l-2.789,1.977q-2.619,1.857-3.582,2.686a7.853,7.853,0,0,0-1.623,1.928h15.453V500.4H436.752A16.61,16.61,0,0,1,438.387,493.441Z"/><path d="M470.2,493.441q1.489-3.54,7.032-7.495a51.542,51.542,0,0,0,6.224-4.931,7.289,7.289,0,0,0,2.174-5.078,5.628,5.628,0,0,0-1.246-3.736,4.384,4.384,0,0,0-3.565-1.489q-3.173,0-4.32,2.368a11.725,11.725,0,0,0-.781,4.346h-6.764a17.049,17.049,0,0,1,1.639-7.3q2.785-5.3,9.9-5.3,5.622,0,8.946,3.112a10.765,10.765,0,0,1,3.324,8.241,11.132,11.132,0,0,1-2.35,6.982,23.381,23.381,0,0,1-5.062,4.517l-2.789,1.977q-2.616,1.857-3.582,2.686a7.853,7.853,0,0,0-1.623,1.928H492.8V500.4H468.559A16.625,16.625,0,0,1,470.2,493.441Z"/><path d="M509.355,504.557c-.5,0-.55-.051-.55-.551,0-.35.1-3.3.1-17.8v-9.65c0-9.7-.1-12.751-.1-13.051,0-.55.05-.6.55-.6.35,0,2.049.1,6.9.1h17.15c4.85,0,6.6-.1,6.9-.1.5,0,.55.051.55.6,0,.3-.1,3.35-.1,11.551v11.1c0,14.351.1,17.3.1,17.6,0,.5-.05.551-.55.551h-4.452c-.5,0-.548-.051-.548-.551v-2.45H514.355v2.7c0,.5-.05.551-.55.551Zm5-25.2h20.952v-11.4H514.355Zm20.952,17v-12.1H514.355v12.1Z"/><circle class="cls-2" cx="582" cy="485" r="23"/><path class="cls-1" d="M573.293,493.3c-2.492,0-3.332.056-3.5.056-.252,0-.281-.028-.281-.308v-2.324c0-.28.029-.308.281-.308.168,0,1.008.056,3.5.056h6.916v-9.548h-4.453c-2.744,0-3.668.056-3.836.056-.279,0-.307-.028-.307-.308V478.35c0-.28.028-.308.307-.308.168,0,1.092.056,3.836.056h4.453v-4.34a27.96,27.96,0,0,0-.225-4.4c1.036.028,2.3.084,3.276.2.252.028.449.14.449.337a1.554,1.554,0,0,1-.168.615,11.414,11.414,0,0,0-.168,3.192v4.4H588.3c2.715,0,3.638-.056,3.806-.056.309,0,.338.028.338.308v2.324c0,.28-.029.308-.338.308-.168,0-1.091-.056-3.806-.056h-4.928v9.548h7.363c2.493,0,3.332-.056,3.5-.056.252,0,.28.028.28.308v2.324c0,.28-.028.308-.28.308-.168,0-1.007-.056-3.5-.056Z"/><path d="M521.762,613.271c-1.751,0-3.5.035-5.251.14-.316,0-.455-.21-.526-.665a26.57,26.57,0,0,1-.384-3.536,61.94,61.94,0,0,0,6.44.28h12.007a3.844,3.844,0,0,0,1.854-.385.757.757,0,0,1,.455-.21.9.9,0,0,1,.526.245,20.669,20.669,0,0,1,2.346,2.171,1.032,1.032,0,0,1,.349.734.844.844,0,0,1-.385.665,4.022,4.022,0,0,0-1.19,1.645c-3.5,7.457-7.525,11.832-14.281,15.472a1.689,1.689,0,0,1-.7.245,1.142,1.142,0,0,1-.77-.42,10.239,10.239,0,0,0-3.255-1.82c6.476-3.01,12.181-7.841,14.7-14.6Zm2.344-7.526c-1.575,0-3.325.035-4.795.14-.35,0-.456-.21-.49-.77a30.525,30.525,0,0,1-.175-3.361,48.214,48.214,0,0,0,5.741.246h6.3c2.275,0,4.129-.105,5.5-.176.315,0,.42.176.42.56a17.784,17.784,0,0,1,0,2.731c0,.6-.1.735-.63.7-1.156,0-2.8-.07-4.936-.07Z"/><path d="M566.492,622.091c0,2.416.035,4.481.106,7.281.034.455-.141.6-.526.6a29.193,29.193,0,0,1-3.5,0c-.385,0-.525-.14-.49-.56.035-2.52.14-4.8.14-7.176v-8.155a60.555,60.555,0,0,1-9.626,6.72.99.99,0,0,1-.526.141.973.973,0,0,1-.734-.351,13.129,13.129,0,0,0-3.011-2.065,56.16,56.16,0,0,0,11.027-7.176,56.856,56.856,0,0,0,7.456-7.315,10.186,10.186,0,0,0,2.205-3.606,31.025,31.025,0,0,1,3.884,2.451.617.617,0,0,1,.281.524,1,1,0,0,1-.49.77,11.583,11.583,0,0,0-2.1,1.926,55.226,55.226,0,0,1-4.1,4.41Z"/><path d="M590.711,609c-2.275,0-4.271.105-5.775.175-.456.035-.6-.21-.665-.7-.106-.7-.246-2.52-.316-3.535a61.266,61.266,0,0,0,6.721.245h12.5a3.349,3.349,0,0,0,1.925-.35.974.974,0,0,1,.525-.14,1.712,1.712,0,0,1,.665.175,10.79,10.79,0,0,1,2.555,2.31.878.878,0,0,1,.245.6,1.194,1.194,0,0,1-.49.875,4.213,4.213,0,0,0-.8,1.365A41.23,41.23,0,0,1,601,621.392a39.248,39.248,0,0,1-9.94,8.33,1.7,1.7,0,0,1-.946.315,1.228,1.228,0,0,1-.875-.385,10.4,10.4,0,0,0-3.256-1.925,33.814,33.814,0,0,0,11.447-8.751A29.473,29.473,0,0,0,603.348,609Zm17.082-8.261c.175-.14.315-.105.525.07a16.12,16.12,0,0,1,3.326,3.746.354.354,0,0,1-.106.56l-1.295.945a.366.366,0,0,1-.6-.1,17.347,17.347,0,0,0-3.536-4.06Zm2.87-2.135c.21-.14.316-.105.525.07a14.641,14.641,0,0,1,3.326,3.605c.139.21.174.386-.106.631l-1.154.944a.425.425,0,0,1-.28.141.375.375,0,0,1-.316-.245,16.562,16.562,0,0,0-3.5-4.026Z"/><path d="M476.613,662.634v-4.926a31.961,31.961,0,0,0,4.786-.457,6.74,6.74,0,0,0,3.546-1.93,6.344,6.344,0,0,0,1.418-2.64,6.078,6.078,0,0,0,.28-1.473h6.043v36.816h-7.415v-25.39Z"/><path d="M504.7,672.206a8.891,8.891,0,0,1,4.1-3.783,8.6,8.6,0,0,1-3.479-3.847,10.742,10.742,0,0,1-.8-3.872,9.028,9.028,0,0,1,3.027-6.843q3.027-2.83,8.551-2.831t8.549,2.831a9.03,9.03,0,0,1,3.029,6.843,10.782,10.782,0,0,1-.8,3.872,7.389,7.389,0,0,1-3.465,3.593,10.237,10.237,0,0,1,4.107,4.037,11.485,11.485,0,0,1,1.378,5.611,10.494,10.494,0,0,1-3.445,7.91q-3.444,3.263-9.62,3.262t-9.353-3.262a10.92,10.92,0,0,1-3.176-7.91A11.347,11.347,0,0,1,504.7,672.206Zm7.525,9.344a5.819,5.819,0,0,0,7.8,0,5.917,5.917,0,0,0,1.41-4.215,5.857,5.857,0,0,0-1.436-4.278,5.864,5.864,0,0,0-7.744,0,7.054,7.054,0,0,0-.025,8.493Zm.461-16.758a4.55,4.55,0,0,0,3.423,1.27,4.5,4.5,0,0,0,3.425-1.27,4.554,4.554,0,0,0,1.21-3.275,4.665,4.665,0,0,0-1.21-3.415,4.582,4.582,0,0,0-3.425-1.232,4.274,4.274,0,0,0-4.658,4.647A4.5,4.5,0,0,0,512.684,664.792Z"/><path d="M561.268,658.39a4.406,4.406,0,0,1-4.471,4.472,4.333,4.333,0,0,1-4.421-4.472,4.383,4.383,0,0,1,4.421-4.42A4.46,4.46,0,0,1,561.268,658.39Zm0,22a4.406,4.406,0,0,1-4.471,4.472,4.333,4.333,0,0,1-4.421-4.472,4.383,4.383,0,0,1,4.421-4.42A4.46,4.46,0,0,1,561.268,680.387Z"/><path d="M607.031,655.905q2.833,4.952,2.832,14.067t-2.832,14.041q-2.829,4.926-9.863,4.925t-9.865-4.925q-2.83-4.926-2.83-14.041t2.83-14.067q2.832-4.951,9.865-4.951T607.031,655.905ZM592.9,679.684q1.041,3.365,4.266,3.364t4.227-3.364a35.917,35.917,0,0,0,1-9.712,35.521,35.521,0,0,0-1-9.852,4.1,4.1,0,0,0-4.227-3.2,4.156,4.156,0,0,0-4.266,3.2,34.261,34.261,0,0,0-1.041,9.852A34.642,34.642,0,0,0,592.9,679.684Z"/><path d="M635.951,655.905q2.833,4.952,2.832,14.067t-2.832,14.041q-2.831,4.926-9.863,4.925t-9.865-4.925q-2.83-4.926-2.83-14.041t2.83-14.067q2.832-4.951,9.865-4.951T635.951,655.905Zm-14.129,23.779q1.041,3.365,4.266,3.364t4.226-3.364a35.87,35.87,0,0,0,1-9.712,35.475,35.475,0,0,0-1-9.852,4.1,4.1,0,0,0-4.226-3.2,4.156,4.156,0,0,0-4.266,3.2,34.261,34.261,0,0,0-1.041,9.852A34.642,34.642,0,0,0,621.822,679.684Z"/><path d="M704.953,667.126c-3.277,5.877-8.06,9-13.521,9-4.68,0-7.957-1.924-11.6-5.46-2.861-2.757-5.2-4.421-9.049-4.421-4.213,0-7.9,2.861-10.088,7.021l-3.381-1.768c3.276-5.877,8.061-9,13.522-9,4.68,0,7.955,1.924,11.6,5.46,2.859,2.757,5.252,4.421,9.048,4.421,4.211,0,7.9-2.86,10.088-7.021Z"/><path d="M439.314,669.378a.235.235,0,0,1,.336.168,19.863,19.863,0,0,1,.672,2.38c.055.308-.056.364-.224.42a41.825,41.825,0,0,1-7.084,1.26c.056,2.268.195,3.808.476,6.468a32.834,32.834,0,0,1,8.119,3.612c.2.112.225.252.112.476a12.556,12.556,0,0,1-1.483,2.352c-.168.168-.252.252-.476.084a26.231,26.231,0,0,0-6.217-3.528,5.6,5.6,0,0,1-.027.644c-.112,2.408-1.9,4.2-5.657,4.2-3.443,0-5.963-1.54-5.963-4.116,0-2.52,2.661-4.284,6.131-4.284a19.5,19.5,0,0,1,2.352.084c-.336-3.668-.42-6.328-.475-8.988-.029-1.008-.056-2.436-.084-3.864a8.3,8.3,0,0,0-.392-2.548,25.7,25.7,0,0,1,3.584.5c.308.084.447.252.447.476a.831.831,0,0,1-.139.42,3.439,3.439,0,0,0-.336,1.512c-.056.84-.056,2.072-.056,3.528A27.159,27.159,0,0,0,439.314,669.378Zm-8.876,12.936a13.084,13.084,0,0,0-2.577-.28c-1.959,0-3.218.644-3.218,1.652,0,.952,1.119,1.428,2.882,1.428,2.1,0,3.024-1.232,2.94-2.408Z"/><path d="M458.129,674.81a8.43,8.43,0,0,1,4.453-1.26c4.088,0,6.943,2.688,6.943,6.72,0,4.676-3.779,7.672-9.771,7.672-3.527,0-5.656-1.512-5.656-4.116a3.715,3.715,0,0,1,3.947-3.416,5.1,5.1,0,0,1,5.266,4.088,4.218,4.218,0,0,0,2.855-4.256,4.088,4.088,0,0,0-4.4-4.228,11.4,11.4,0,0,0-7.168,2.968c-.813.728-1.6,1.54-2.436,2.38-.2.2-.336.308-.477.308a.689.689,0,0,1-.419-.252,12.672,12.672,0,0,1-1.653-1.82c-.168-.224-.084-.42.141-.644a67.739,67.739,0,0,0,6.637-6.188c1.734-1.792,3.05-3.192,4.339-4.788-1.681.308-3.668.7-5.4,1.064a8.579,8.579,0,0,0-1.176.336,2.054,2.054,0,0,1-.56.14.634.634,0,0,1-.615-.476,13.446,13.446,0,0,1-.981-3.024,13.5,13.5,0,0,0,2.6.056c1.709-.168,4.171-.532,6.355-.952a7.443,7.443,0,0,0,1.541-.42,1.436,1.436,0,0,1,.531-.224,1,1,0,0,1,.645.224,10.551,10.551,0,0,1,1.875,1.792.972.972,0,0,1,.308.672.741.741,0,0,1-.476.672,4.531,4.531,0,0,0-1.231.9c-2.045,1.988-3.92,3.948-6.048,5.992Zm.029,7.98c-.812,0-1.344.476-1.344,1.064,0,.868.756,1.456,2.436,1.456a6.121,6.121,0,0,0,1.287-.112C460.174,683.658,459.334,682.79,458.158,682.79Z"/><path d="M102.032,603.54a9.05,9.05,0,0,0,.07-2.381,14.466,14.466,0,0,1,4.13,1.4c.385.174.561.384.561.629a1.2,1.2,0,0,1-.245.6,5.732,5.732,0,0,0-.7,1.3c-.21.56-.526,1.4-.981,2.8,5.53.875,9.346,4.585,9.346,10.151,0,6.231-3.78,9.976-10.746,11.691-.77.175-1.015.07-1.435-.6a7.158,7.158,0,0,0-2.275-2.31c4.761-.98,10.466-3.15,10.466-9.241,0-3.535-2.451-6.231-6.3-6.616a63.04,63.04,0,0,1-5.11,10.222,12.329,12.329,0,0,0,1.5,1.785,9.982,9.982,0,0,1-2.17,2.135.831.831,0,0,1-.49.175.754.754,0,0,1-.489-.21c-.28-.28-.561-.56-.945-1.015-2.276,2.415-3.956,3.325-5.846,3.325-2.66,0-4.586-2.17-4.586-5.67,0-3.641,1.61-7,4.971-10.046-.385-1.331-.736-3.081-1.085-4.621a15.884,15.884,0,0,0-1.05-3.29,15.194,15.194,0,0,1,3.955.56c.56.14.665.385.665,1.015a11.39,11.39,0,0,0,.14,2c.176,1.015.28,1.645.49,2.485a20.041,20.041,0,0,1,7.141-2A26.631,26.631,0,0,0,102.032,603.54ZM89.4,621.356c0,1.19.49,2.136,1.225,2.136,1.05,0,2.17-.77,3.641-2.555a36.137,36.137,0,0,1-2.416-5.671A9.8,9.8,0,0,0,89.4,621.356Zm7.281-3.29A42.212,42.212,0,0,0,100,611a13.73,13.73,0,0,0-5.286,1.961A26.152,26.152,0,0,0,96.677,618.066Z"/><path d="M131.222,601.649c.594.141.84.315.84.665a3.394,3.394,0,0,1-.35,1.156,20.8,20.8,0,0,0-.49,4.27c-.351,5.39-.526,8.961-.526,13.547,0,3.535.42,4.34,3.221,4.34,3.115,0,7.98-1.89,12.251-6.441a12.176,12.176,0,0,0,.805,3.326,2.3,2.3,0,0,1,.28.84c0,.315-.14.6-.7,1.085a20,20,0,0,1-13.266,5.251c-4.48,0-6.581-1.786-6.581-7.142,0-5.88.315-10.921.49-15.121a23.27,23.27,0,0,0-.35-6.4A36.04,36.04,0,0,1,131.222,601.649Z"/><path d="M161.741,620.9a.778.778,0,0,1,.98-.42,59.683,59.683,0,0,1,16.767,5.461.614.614,0,0,1,.35.945,27.356,27.356,0,0,1-1.4,2.87c-.175.28-.315.42-.525.42a1.039,1.039,0,0,1-.49-.175,63.77,63.77,0,0,0-17.292-5.81A36.29,36.29,0,0,1,161.741,620.9Zm.455-10.431c.175-.385.385-.49.91-.35a54.541,54.541,0,0,1,10.676,3.4c.56.245.63.49.455,1.015a22.132,22.132,0,0,1-1.155,2.7c-.175.315-.314.455-.49.455a.847.847,0,0,1-.455-.14A51.523,51.523,0,0,0,160.69,613.8,34.646,34.646,0,0,1,162.2,610.47Zm2.31-9.136c.28-.56.455-.56.945-.455a64.545,64.545,0,0,1,12.462,3.676c.56.245.63.42.42.875a28.878,28.878,0,0,1-1.226,3.045c-.174.42-.49.42-.839.245a57.313,57.313,0,0,0-13.232-4.025C163.456,603.68,164.227,601.9,164.506,601.334Z"/><path d="M211.372,606.13a3.255,3.255,0,0,0,1.751-.42.7.7,0,0,1,.455-.14,1.016,1.016,0,0,1,.56.21,16.146,16.146,0,0,1,2.38,1.89,1.134,1.134,0,0,1,.455.805,1.009,1.009,0,0,1-.42.735,4.217,4.217,0,0,0-1.156,1.5,48.192,48.192,0,0,1-6.93,10.816,44.47,44.47,0,0,1-10.641,8.717.952.952,0,0,1-.56.174,1.233,1.233,0,0,1-.8-.385,9.211,9.211,0,0,0-3.325-1.61,40.342,40.342,0,0,0,11.656-8.926,35.672,35.672,0,0,0,6.476-9.941l-8.471.245a48.706,48.706,0,0,1-6.616,7.176,1.09,1.09,0,0,1-.735.385.841.841,0,0,1-.525-.21,9.494,9.494,0,0,0-3.36-1.5,41.541,41.541,0,0,0,9.416-10.4,14.984,14.984,0,0,0,2.065-4.726,17.218,17.218,0,0,1,4.095,1.855.733.733,0,0,1,.35.6.7.7,0,0,1-.385.6,3.781,3.781,0,0,0-.875.945c-.385.6-.735,1.12-1.155,1.75Z"/><path d="M236.781,603.715a11.559,11.559,0,0,0-1.75-2.836,27.566,27.566,0,0,1,4.165-.56c.91,0,1.191.245,1.191.735a4.6,4.6,0,0,0,.035.98,15.083,15.083,0,0,0,.56,1.751c.42,1.05.735,1.89,1.19,2.835a53.889,53.889,0,0,0,7.316-2.17c.35-.176.455-.14.665.245a15.2,15.2,0,0,1,.875,2.695c.105.35-.035.525-.28.6a55.943,55.943,0,0,1-6.966,2.03,39.92,39.92,0,0,0,5.356,7.386,9.488,9.488,0,0,0,.91.77c.21.175.349.28.349.455a1.106,1.106,0,0,1-.209.6,13.932,13.932,0,0,1-1.366,2.276c-.279.384-.454.524-.7.524-.176,0-.28-.069-.561-.279a11.4,11.4,0,0,0-1.434-.91,16,16,0,0,0-7.421-1.786c-3.641,0-5.846,1.085-5.846,3.29,0,2.626,3.186,3.711,8.681,3.711a34.644,34.644,0,0,0,5.6-.49,21.371,21.371,0,0,1-.736,3.745c-.1.35-.245.42-.665.49a31.246,31.246,0,0,1-3.885.245c-8.261,0-12.707-2.625-12.707-7.245,0-3.991,3.431-6.791,9.206-6.791a17.862,17.862,0,0,1,6.231.945,22.5,22.5,0,0,1-4.515-6.2c-2.206.385-4.236.666-6.756.875-.945.07-2.555.175-3.43.175-.316,0-.455-.21-.56-.63a27.378,27.378,0,0,1-.805-3.15,43.51,43.51,0,0,0,4.375-.035,48.083,48.083,0,0,0,5.531-.665C237.832,606.06,237.342,605.045,236.781,603.715Z"/><path d="M269.4,616.841a6.95,6.95,0,0,1,4.271-1.785c3.78,0,4.725,3.255,5.11,6.615.28,2.556.7,3.711,2.03,3.711a4.474,4.474,0,0,0,3.291-1.68A17.331,17.331,0,0,0,287.638,618a8.491,8.491,0,0,0,2.03,2.9.963.963,0,0,1,.386.736,1.223,1.223,0,0,1-.141.594,18.882,18.882,0,0,1-3.01,4.341,8.743,8.743,0,0,1-6.44,2.94c-3.536,0-5.041-1.855-5.5-6.79-.316-3.5-1.085-4.516-2.311-4.516-1.5,0-3.01,1.12-4.41,2.976a40.71,40.71,0,0,0-4.1,7.77c-.21.49-.384.56-.839.42a11.3,11.3,0,0,1-2.7-1.5.608.608,0,0,1-.314-.455,1.032,1.032,0,0,1,.175-.49c5.11-10.011,8.331-16.7,10.255-21.072a21.006,21.006,0,0,0,1.75-5.111A20.2,20.2,0,0,1,276.4,602.7a.912.912,0,0,1,.49.735,1.093,1.093,0,0,1-.385.7,9.122,9.122,0,0,0-1.085,1.5c-2.24,4.305-4.131,7.981-6.056,11.131Z"/><path d="M101.613,662.634v-4.926a31.976,31.976,0,0,0,4.786-.457,6.736,6.736,0,0,0,3.546-1.93,6.368,6.368,0,0,0,1.419-2.64,6.1,6.1,0,0,0,.278-1.473h6.043v36.816h-7.414v-25.39Z"/><path d="M151.112,655.905q2.831,4.952,2.831,14.067t-2.831,14.041q-2.832,4.926-9.864,4.925t-9.865-4.925q-2.831-4.926-2.831-14.041t2.831-14.067q2.832-4.951,9.865-4.951T151.112,655.905Zm-14.13,23.779q1.041,3.365,4.266,3.364t4.227-3.364a35.917,35.917,0,0,0,1-9.712,35.521,35.521,0,0,0-1-9.852,4.1,4.1,0,0,0-4.227-3.2,4.156,4.156,0,0,0-4.266,3.2,34.3,34.3,0,0,0-1.041,9.852A34.679,34.679,0,0,0,136.982,679.684Z"/><path d="M186.268,658.39a4.407,4.407,0,0,1-4.472,4.472,4.333,4.333,0,0,1-4.42-4.472,4.383,4.383,0,0,1,4.42-4.42A4.461,4.461,0,0,1,186.268,658.39Zm0,22a4.407,4.407,0,0,1-4.472,4.472,4.333,4.333,0,0,1-4.42-4.472,4.383,4.383,0,0,1,4.42-4.42A4.461,4.461,0,0,1,186.268,680.387Z"/><path d="M232.032,655.905q2.831,4.952,2.831,14.067t-2.831,14.041q-2.832,4.926-9.865,4.925t-9.864-4.925q-2.831-4.926-2.831-14.041t2.831-14.067q2.832-4.951,9.864-4.951T232.032,655.905ZM217.9,679.684q1.041,3.365,4.265,3.364t4.228-3.364a35.917,35.917,0,0,0,1-9.712,35.521,35.521,0,0,0-1-9.852,4.1,4.1,0,0,0-4.228-3.2,4.156,4.156,0,0,0-4.265,3.2,34.3,34.3,0,0,0-1.041,9.852A34.679,34.679,0,0,0,217.9,679.684Z"/><path d="M260.952,655.905q2.831,4.952,2.831,14.067t-2.831,14.041q-2.832,4.926-9.865,4.925t-9.864-4.925q-2.832-4.926-2.831-14.041t2.831-14.067q2.832-4.951,9.864-4.951T260.952,655.905Zm-14.13,23.779q1.041,3.365,4.265,3.364t4.228-3.364a35.917,35.917,0,0,0,1-9.712,35.521,35.521,0,0,0-1-9.852,4.1,4.1,0,0,0-4.228-3.2,4.156,4.156,0,0,0-4.265,3.2,34.261,34.261,0,0,0-1.041,9.852A34.642,34.642,0,0,0,246.822,679.684Z"/><path d="M329.953,667.126c-3.277,5.877-8.061,9-13.522,9-4.68,0-7.956-1.924-11.6-5.46-2.86-2.757-5.2-4.421-9.048-4.421-4.212,0-7.9,2.861-10.088,7.021l-3.381-1.768c3.276-5.877,8.06-9,13.521-9,4.68,0,7.956,1.924,11.6,5.46,2.86,2.757,5.252,4.421,9.049,4.421,4.212,0,7.9-2.86,10.088-7.021Z"/><path d="M56.053,664.422q.506.168.505.5a.613.613,0,0,1-.141.448,2.172,2.172,0,0,0-.391,1.008c-.084.5-.141.924-.225,1.4a53.843,53.843,0,0,0,7.281-1.176c.335-.084.419.028.476.28a8.684,8.684,0,0,1,.279,1.9c0,.364-.279.5-.587.56a59.442,59.442,0,0,1-7.953,1.176c-.111,1.176-.168,1.848-.2,2.828a16.8,16.8,0,0,1,4.283-.616,6.9,6.9,0,0,0,.477-2.044,11.291,11.291,0,0,1,2.492,1.036c.336.224.5.448.5.616a.488.488,0,0,1-.168.336,2.357,2.357,0,0,0-.364.56c3.612.952,5.74,3.332,5.74,6.832,0,4.06-3.332,6.692-7.784,7.9a.872.872,0,0,1-1.233-.532A7.108,7.108,0,0,0,57.4,685.7a16.12,16.12,0,0,0,5.208-2.044,4.819,4.819,0,0,0,2.239-4.2,4.179,4.179,0,0,0-3.471-4.06,29.615,29.615,0,0,1-5.292,7.336,8.442,8.442,0,0,0,.5,1.26c.168.364.057.5-.223.7a8.938,8.938,0,0,1-1.68.98c-.28.14-.392.14-.56-.14a5.522,5.522,0,0,1-.476-1.092c-1.988,1.372-3.444,2.016-4.872,2.016-1.9,0-3.108-1.288-3.108-3.472,0-3.584,3.108-7,6.551-8.708.029-1.2.084-2.436.141-3.5-1.652.056-2.408.028-2.884.028a11.153,11.153,0,0,1-1.6-.056c-.307-.028-.475-.168-.5-.644-.084-.616-.084-1.344-.14-2.128a42.694,42.694,0,0,0,5.432.112c.112-1.008.224-2.268.224-3.052a6.582,6.582,0,0,0-.112-1.26A15.31,15.31,0,0,1,56.053,664.422ZM48.606,682.4a.955.955,0,0,0,.924,1.064c.784,0,1.82-.5,3.248-1.624a36.478,36.478,0,0,1-.561-4.816C50.062,678.562,48.606,680.578,48.606,682.4Zm9.939-7.28a13.153,13.153,0,0,0-3.584.644,30.288,30.288,0,0,0,.336,4.2A25.648,25.648,0,0,0,58.545,675.118Z"/><path d="M82.29,666.606a9.244,9.244,0,0,0-1.4-2.268,22.014,22.014,0,0,1,3.331-.448c.729,0,.952.2.952.588a3.677,3.677,0,0,0,.029.784,12.067,12.067,0,0,0,.448,1.4c.336.84.588,1.512.952,2.268a43.094,43.094,0,0,0,5.852-1.736c.28-.14.364-.112.532.2a12.157,12.157,0,0,1,.7,2.156c.084.28-.028.42-.225.476a44.586,44.586,0,0,1-5.572,1.624,31.981,31.981,0,0,0,4.284,5.908,7.83,7.83,0,0,0,.729.616c.168.14.279.224.279.364a.885.885,0,0,1-.168.476,11.12,11.12,0,0,1-1.092,1.82c-.223.308-.363.42-.559.42-.141,0-.225-.056-.448-.224a9.383,9.383,0,0,0-1.148-.728,12.8,12.8,0,0,0-5.936-1.428c-2.913,0-4.676.868-4.676,2.632,0,2.1,2.548,2.968,6.944,2.968a27.707,27.707,0,0,0,4.48-.392,17.2,17.2,0,0,1-.588,3c-.084.28-.2.336-.532.392a25,25,0,0,1-3.108.2c-6.608,0-10.164-2.1-10.164-5.8,0-3.192,2.744-5.432,7.363-5.432a14.294,14.294,0,0,1,4.985.756,18.028,18.028,0,0,1-3.613-4.956c-1.763.308-3.387.532-5.4.7-.757.056-2.044.14-2.744.14-.252,0-.364-.168-.448-.5a21.7,21.7,0,0,1-.644-2.52,34.812,34.812,0,0,0,3.5-.028,38.461,38.461,0,0,0,4.424-.532C83.129,668.482,82.738,667.67,82.29,666.606Z"/><polygon class="cls-2" points="157.394 36.649 171.642 6.543 208.519 42.42 157.394 36.649"/><polyline class="cls-3" points="180.159 88.395 131.538 71.57 152.032 45.315"/><polygon class="cls-2" points="98.576 102.231 123.778 80.454 143.004 128.177 98.576 102.231"/><polyline class="cls-3" points="96.485 160.289 59.143 124.897 88.647 109.44"/><polygon class="cls-2" points="15.402 138.536 47.494 129.622 44.476 180.983 15.402 138.536"/><path class="cls-6" d="M174.028.146S136.45,123.679.064,141.274"/><polygon class="cls-2" points="52.067 97.455 84.491 89.836 79.414 141.034 52.067 97.455"/><polygon class="cls-2" points="137.779 69.546 167.26 54.046 175.174 104.883 137.779 69.546"/><polyline class="cls-3" points="28.112 150.871 6.545 104.16 39.676 100.738"/><polyline class="cls-3" points="130.335 124.383 97.34 84.906 128.435 72.969"/><polygon class="cls-2" points="210.272 28.041 235.298 6.062 254.908 53.628 210.272 28.041"/><polyline class="cls-3" points="221.217 78.842 180.197 47.787 207.814 29.169"/><path class="cls-6" d="M-3,103.931S124.251,105.5,243.376,0"/><polygon class="cls-2" points="592.606 36.649 578.358 6.543 541.481 42.42 592.606 36.649"/><polyline class="cls-3" points="569.841 88.395 618.462 71.57 597.968 45.315"/><polygon class="cls-2" points="651.424 102.231 626.222 80.454 606.996 128.177 651.424 102.231"/><polyline class="cls-3" points="653.515 160.289 690.857 124.897 661.353 109.44"/><polygon class="cls-2" points="734.598 138.536 702.506 129.622 705.524 180.983 734.598 138.536"/><path class="cls-6" d="M575.972.146S613.55,123.679,749.936,141.274"/><polygon class="cls-2" points="694.927 97.829 662.503 90.21 667.58 141.409 694.927 97.829"/><polygon class="cls-2" points="609.215 69.921 579.734 54.42 571.82 105.258 609.215 69.921"/><polyline class="cls-3" points="718.882 151.246 740.449 104.534 707.318 101.112"/><polyline class="cls-3" points="616.659 124.757 649.653 85.28 618.559 73.343"/><polygon class="cls-2" points="536.722 28.415 511.696 6.437 492.086 54.002 536.722 28.415"/><polyline class="cls-3" points="525.777 79.216 566.797 48.162 539.18 29.543"/><path class="cls-6" d="M749.994,104.306S622.742,105.874,503.618.374"/></svg>
