<svg xmlns="http://www.w3.org/2000/svg" viewBox="0 0 750 750"><defs><style>.a{fill:#fff;}.b{fill:#349980;}.c{fill:#e93589;}</style></defs><title>アートボード 1</title><rect class="a" width="750" height="750"/><path class="b" d="M253.884,290.262a28.955,28.955,0,0,1,5.716,4,22.788,22.788,0,0,1,4.626,5.794,16.346,16.346,0,0,1,2.094,7.588v27.979a4.254,4.254,0,0,1-1.715,3.516,6.024,6.024,0,0,1-4.137,1.25c-3.5-.43-5.429-2.263-5.728-5.5V306.463a7.671,7.671,0,0,0-.9-3.411,9.8,9.8,0,0,0-1.817-2.413,9.388,9.388,0,0,0-2.07-1.5,7.581,7.581,0,0,0-2.191-.757,6.974,6.974,0,0,0-2.269-.03,6.015,6.015,0,0,0-4.149,2.629,5.529,5.529,0,0,0-.882,3.265v29.738a4.481,4.481,0,0,1-2.027,3.813,7.552,7.552,0,0,1-4.9,1.341c-4.153-.484-6.482-2.494-6.909-6.031V302.1a7.918,7.918,0,0,0-1.072-3.736,11.078,11.078,0,0,0-2.165-2.665,11.453,11.453,0,0,0-2.469-1.677,9.76,9.76,0,0,0-2.617-.867,9.118,9.118,0,0,0-2.714-.073,7.9,7.9,0,0,0-2.641.814,7.089,7.089,0,0,0-2.33,1.99,5.607,5.607,0,0,0-1.058,3.562L206.019,406.1c0,1.734.025,5.239-.959,6.223-1.577,1.577-2.462,1.331-4.756,1.265-5.065-.144-3.963-3.137-4.475-6.882l-2.944-110.623a11.868,11.868,0,0,1,3.015-8.44,18.426,18.426,0,0,1,6.745-4.656,26.13,26.13,0,0,1,7.68-1.749,28.044,28.044,0,0,1,7.866.549,30.582,30.582,0,0,1,7.416,2.617,36.6,36.6,0,0,1,6.8,4.43q.619.555,1.132,1.085a11.965,11.965,0,0,0,1.124-.638,21.925,21.925,0,0,1,6.44-1.667,21.368,21.368,0,0,1,6.569.373A23.783,23.783,0,0,1,253.884,290.262Z"/><path class="b" d="M296.59,301.438a4.878,4.878,0,0,1,2.678,1.67A4.637,4.637,0,0,1,300.415,306v28.765a3.578,3.578,0,0,1-3.826,3.623,4.373,4.373,0,0,1-2.886-1.26,3.847,3.847,0,0,1-1.239-2.883V304.573A3.157,3.157,0,0,1,293.734,302,3.491,3.491,0,0,1,296.59,301.438Z"/><path class="b" d="M281.04,298.231a5.748,5.748,0,0,1,3.116,1.907,5.191,5.191,0,0,1,1.333,3.272v32.5c-.266,2.639-1.736,4.008-4.45,4.105a5.156,5.156,0,0,1-3.362-1.418,4.285,4.285,0,0,1-1.445-3.261V301.75a3.515,3.515,0,0,1,1.481-2.905A4.151,4.151,0,0,1,281.04,298.231Z"/><path class="b" d="M304.714,313.527a32.685,32.685,0,0,1,7.881-3.558l6.662-2.355a1.954,1.954,0,0,1,.939-.111,2.624,2.624,0,0,1,1.853,1.254,4.5,4.5,0,0,1,.762,2.607,4.2,4.2,0,0,1-.514,2.4,3.332,3.332,0,0,1-1.325,1.076l-5.563,1.823q-1.683.578-3.214,1.171a13.479,13.479,0,0,0-2.839,1.5,2.594,2.594,0,0,0-1.394,2.059,3.824,3.824,0,0,0,1.394,2.447,19.615,19.615,0,0,0,2.839,2.29q1.53,1.02,3.214,2.066l6.179,3.64a4.237,4.237,0,0,1,1.828,3.974,3.583,3.583,0,0,1-.757,2.388,1.9,1.9,0,0,1-1.842.738,2.353,2.353,0,0,1-.934-.37l-7.289-4.459a46.632,46.632,0,0,1-7.9-5.783,10.406,10.406,0,0,1-3.141-7.823C301.582,317.239,302.646,314.908,304.714,313.527Z"/><path class="b" d="M338.349,341.118a12.559,12.559,0,0,1-3.739-.788,15.016,15.016,0,0,1-3.649-1.989,13.063,13.063,0,0,1-3.165-3.4,9.49,9.49,0,0,1-1.518-4.912v-18.6a2.953,2.953,0,0,1,.822-2.232,2.037,2.037,0,0,1,1.919-.558c1.557.486,2.391,1.745,2.518,3.78V329a4.784,4.784,0,0,0,.9,2.674,7.691,7.691,0,0,0,1.806,1.786,9.059,9.059,0,0,0,2.031,1.063,7.91,7.91,0,0,0,2.08.466,7.171,7.171,0,0,0,2.038-.121,6.953,6.953,0,0,0,1.911-.7,5.419,5.419,0,0,0,1.638-1.392,3.913,3.913,0,0,0,.792-2.348V314.9a2.893,2.893,0,0,1,.686-2.052,1.632,1.632,0,0,1,1.6-.541c1.3.42,2.012,1.561,2.14,3.426v16.606a7.885,7.885,0,0,1-1.243,4.181,9.574,9.574,0,0,1-2.685,2.724,11.484,11.484,0,0,1-3.278,1.487A11.342,11.342,0,0,1,338.349,341.118Z"/><path class="b" d="M366.28,363.57a1.31,1.31,0,0,1-.927-.385,1.852,1.852,0,0,1-.167-.2,1.2,1.2,0,0,1-.192-.473,1.22,1.22,0,0,1-.026-.254,1.312,1.312,0,0,1,.385-.928,1.8,1.8,0,0,1,.2-.166,1.923,1.923,0,0,1,.227-.123,2.1,2.1,0,0,1,.245-.07,1.254,1.254,0,0,1,.508,0,2.055,2.055,0,0,1,.245.07,1.923,1.923,0,0,1,.227.123,1.9,1.9,0,0,1,.2.166,1.314,1.314,0,0,1,.385.928,1.22,1.22,0,0,1-.026.254,1.683,1.683,0,0,1-.192.473,1.845,1.845,0,0,1-.166.2,1.17,1.17,0,0,1-.2.158.827.827,0,0,1-.227.122,1.151,1.151,0,0,1-.245.079A1.189,1.189,0,0,1,366.28,363.57Z"/><path class="b" d="M371.068,361.811a1.31,1.31,0,0,1,1.191-1.427h0a1.306,1.306,0,0,1,1.427,1.182h0a1.313,1.313,0,0,1-1.181,1.427h0a.609.609,0,0,1-.123.009h0A1.327,1.327,0,0,1,371.068,361.811Zm6.1-.569a1.3,1.3,0,0,1,1.19-1.427h0A1.313,1.313,0,0,1,379.785,361h0a1.3,1.3,0,0,1-1.19,1.427h0a.527.527,0,0,1-.123.009h0A1.31,1.31,0,0,1,377.169,361.242Zm6.1-.569a1.308,1.308,0,0,1,1.181-1.427h0a1.316,1.316,0,0,1,1.436,1.182h0a1.31,1.31,0,0,1-1.191,1.427h0a.549.549,0,0,1-.122.009h0A1.3,1.3,0,0,1,383.269,360.673Zm6.1-.569a1.308,1.308,0,0,1,1.182-1.427h0a1.315,1.315,0,0,1,1.435,1.181h0a1.323,1.323,0,0,1-1.191,1.436h-.122A1.312,1.312,0,0,1,389.369,360.1Zm6.1-.569a1.314,1.314,0,0,1,1.182-1.427h0a1.316,1.316,0,0,1,1.435,1.182h0a1.322,1.322,0,0,1-1.19,1.436h-.123A1.306,1.306,0,0,1,395.47,359.536Zm6.1-.569a1.313,1.313,0,0,1,1.181-1.427h0a1.3,1.3,0,0,1,1.427,1.191h0A1.312,1.312,0,0,1,403,360.157h-.122A1.3,1.3,0,0,1,401.571,358.967Zm6.1-.569a1.307,1.307,0,0,1,1.181-1.427h0a1.3,1.3,0,0,1,1.427,1.19h0a1.314,1.314,0,0,1-1.182,1.427h-.122A1.305,1.305,0,0,1,407.671,358.4Zm6.1-.569a1.307,1.307,0,0,1,1.182-1.427h0a1.314,1.314,0,0,1,1.427,1.19h0a1.313,1.313,0,0,1-1.182,1.427h0c-.044,0-.087.009-.122.009h0A1.313,1.313,0,0,1,413.771,357.829Zm6.092-.56a1.323,1.323,0,0,1,1.191-1.435h0a1.319,1.319,0,0,1,1.427,1.19h0a1.313,1.313,0,0,1-1.181,1.427h0a.609.609,0,0,1-.123.009h0A1.327,1.327,0,0,1,419.863,357.268Zm6.1-.569a1.316,1.316,0,0,1,1.19-1.436h0a1.32,1.32,0,0,1,1.427,1.191h0a1.313,1.313,0,0,1-1.19,1.427h0a.553.553,0,0,1-.123.009h0A1.317,1.317,0,0,1,425.964,356.7Zm6.1-.569a1.3,1.3,0,0,1,1.181-1.427h0a1.316,1.316,0,0,1,1.436,1.182h0a1.315,1.315,0,0,1-1.191,1.427h0a.549.549,0,0,1-.122.009h0A1.305,1.305,0,0,1,432.064,356.131Zm6.1-.569a1.3,1.3,0,0,1,1.182-1.427h0a1.315,1.315,0,0,1,1.435,1.181h0a1.31,1.31,0,0,1-1.191,1.427h0a.588.588,0,0,1-.122.009h0A1.305,1.305,0,0,1,438.165,355.562Zm6.1-.569a1.309,1.309,0,0,1,1.182-1.427h0a1.3,1.3,0,0,1,1.427,1.182h0a1.3,1.3,0,0,1-1.181,1.427h0a.613.613,0,0,1-.123.009h0A1.306,1.306,0,0,1,444.265,354.993Zm6.1-.569A1.312,1.312,0,0,1,451.547,353h0a1.3,1.3,0,0,1,1.427,1.182h0a1.316,1.316,0,0,1-1.181,1.436h-.122A1.3,1.3,0,0,1,450.366,354.424Zm6.092-.569a1.32,1.32,0,0,1,1.19-1.427h0a1.308,1.308,0,0,1,1.427,1.182h0a1.316,1.316,0,0,1-1.182,1.435h-.122A1.319,1.319,0,0,1,456.458,353.855Zm6.1-.569a1.32,1.32,0,0,1,1.191-1.427h0a1.313,1.313,0,0,1,1.427,1.182h0a1.316,1.316,0,0,1-1.182,1.435h-.131A1.318,1.318,0,0,1,462.558,353.286Zm6.1-.569a1.32,1.32,0,0,1,1.191-1.427h0a1.319,1.319,0,0,1,1.427,1.19h0a1.314,1.314,0,0,1-1.191,1.427h0c-.034,0-.079.009-.114.009h0A1.328,1.328,0,0,1,468.658,352.717Zm6.1-.56a1.316,1.316,0,0,1,1.19-1.436h0a1.32,1.32,0,0,1,1.427,1.191h0a1.313,1.313,0,0,1-1.19,1.427h0c-.035,0-.079.009-.123.009h0A1.317,1.317,0,0,1,474.759,352.157Zm6.1-.569a1.316,1.316,0,0,1,1.181-1.436h0a1.323,1.323,0,0,1,1.436,1.19h0a1.315,1.315,0,0,1-1.191,1.427h0c-.035,0-.079.009-.122.009h0A1.312,1.312,0,0,1,480.86,351.588Zm6.1-.569a1.3,1.3,0,0,1,1.182-1.427h0a1.31,1.31,0,0,1,1.435,1.182h0a1.314,1.314,0,0,1-1.191,1.427h0a.561.561,0,0,1-.122.009h0A1.312,1.312,0,0,1,486.96,351.019Zm6.1-.569a1.3,1.3,0,0,1,1.182-1.427h0a1.3,1.3,0,0,1,1.427,1.182h0a1.3,1.3,0,0,1-1.181,1.427h0a.613.613,0,0,1-.123.009h0A1.306,1.306,0,0,1,493.06,350.45Zm6.1-.569a1.3,1.3,0,0,1,1.181-1.427h0a1.308,1.308,0,0,1,1.427,1.182h0a1.3,1.3,0,0,1-1.181,1.427h0a.605.605,0,0,1-.122.009h0A1.3,1.3,0,0,1,499.161,349.881Z"/><path class="b" d="M506.566,350.5a1.183,1.183,0,0,1-.254-.026,1.354,1.354,0,0,1-.254-.07,1.749,1.749,0,0,1-.219-.123.926.926,0,0,1-.2-.166,1.3,1.3,0,0,1-.385-.928,1.33,1.33,0,0,1,.385-.928,1.355,1.355,0,0,1,1.856,0,1.327,1.327,0,0,1,.385.928,1.31,1.31,0,0,1-.385.928A1.325,1.325,0,0,1,506.566,350.5Z"/><path class="b" d="M173.628,381.653a1.246,1.246,0,0,1-.508-.105,1.445,1.445,0,0,1-.227-.123,1.075,1.075,0,0,1-.193-.157,1.219,1.219,0,0,1-.166-.2,1.929,1.929,0,0,1-.123-.228c-.026-.079-.053-.166-.07-.245a1.316,1.316,0,0,1-.026-.254,1.333,1.333,0,0,1,.385-.937,1.636,1.636,0,0,1,.193-.157,1.445,1.445,0,0,1,.227-.123,1.318,1.318,0,0,1,.245-.079,1.686,1.686,0,0,1,.516,0,1.41,1.41,0,0,1,.473.2,1.766,1.766,0,0,1,.2.157,1.333,1.333,0,0,1,.385.937,1.318,1.318,0,0,1-.026.254,1.293,1.293,0,0,1-.079.245.82.82,0,0,1-.123.228,1.16,1.16,0,0,1-.157.2,1.445,1.445,0,0,1-.674.359A1.249,1.249,0,0,1,173.628,381.653Z"/><path class="b" d="M178.53,379.876a1.313,1.313,0,0,1,1.182-1.427h0a1.323,1.323,0,0,1,1.435,1.19h0a1.319,1.319,0,0,1-1.19,1.427h-.123A1.3,1.3,0,0,1,178.53,379.876Zm6.205-.577a1.313,1.313,0,0,1,1.19-1.427h0a1.314,1.314,0,0,1,1.427,1.191h0a1.313,1.313,0,0,1-1.182,1.427h-.123A1.313,1.313,0,0,1,184.735,379.3Zm6.214-.578a1.312,1.312,0,0,1,1.182-1.427h0a1.3,1.3,0,0,1,1.427,1.181h0a1.316,1.316,0,0,1-1.182,1.436h-.123A1.3,1.3,0,0,1,190.95,378.721Zm6.205-.578a1.314,1.314,0,0,1,1.19-1.427h0a1.313,1.313,0,0,1,1.427,1.182h0a1.316,1.316,0,0,1-1.191,1.435h-.122A1.311,1.311,0,0,1,197.155,378.143Zm6.214-.577a1.308,1.308,0,0,1,1.182-1.427h0a1.308,1.308,0,0,1,1.427,1.182h0a1.316,1.316,0,0,1-1.182,1.436h-.123A1.3,1.3,0,0,1,203.369,377.566Zm6.205-.578a1.308,1.308,0,0,1,1.182-1.427h0a1.316,1.316,0,0,1,1.436,1.181h0a1.317,1.317,0,0,1-1.19,1.436h-.123A1.311,1.311,0,0,1,209.575,376.988Zm6.214-.578a1.3,1.3,0,0,1,1.182-1.427h0a1.3,1.3,0,0,1,1.427,1.182h0a1.3,1.3,0,0,1-1.182,1.427h0a.631.631,0,0,1-.122.009h0A1.3,1.3,0,0,1,215.789,376.41Zm6.205-.578a1.3,1.3,0,0,1,1.182-1.427h0a1.316,1.316,0,0,1,1.436,1.182h0a1.31,1.31,0,0,1-1.19,1.427h0a.527.527,0,0,1-.123.009h0A1.311,1.311,0,0,1,221.995,375.833Zm6.214-.577a1.3,1.3,0,0,1,1.182-1.427h0a1.307,1.307,0,0,1,1.427,1.181h0a1.3,1.3,0,0,1-1.182,1.427h0a.631.631,0,0,1-.122.009h0A1.305,1.305,0,0,1,228.209,375.255Zm6.206-.578a1.316,1.316,0,0,1,1.181-1.436h0a1.329,1.329,0,0,1,1.436,1.191h0a1.314,1.314,0,0,1-1.19,1.427h0a.6.6,0,0,1-.123.009h0A1.318,1.318,0,0,1,234.415,374.677Zm6.205-.578a1.322,1.322,0,0,1,1.19-1.435h0a1.319,1.319,0,0,1,1.427,1.19h0a1.307,1.307,0,0,1-1.181,1.427h0a.65.65,0,0,1-.132.009h0A1.317,1.317,0,0,1,240.62,374.1Zm6.214-.577a1.316,1.316,0,0,1,1.181-1.436h0a1.31,1.31,0,0,1,1.427,1.19h0a1.307,1.307,0,0,1-1.182,1.427h0c-.044,0-.079.009-.123.009h0A1.311,1.311,0,0,1,246.835,373.522Zm6.205-.578a1.323,1.323,0,0,1,1.19-1.436h0a1.319,1.319,0,0,1,1.427,1.191h0a1.313,1.313,0,0,1-1.181,1.427h0c-.044,0-.088.009-.132.009h0A1.318,1.318,0,0,1,253.04,372.944Zm6.214-.586a1.313,1.313,0,0,1,1.182-1.427h0a1.322,1.322,0,0,1,1.435,1.19h0a1.326,1.326,0,0,1-1.19,1.427h0c-.044,0-.088.009-.123.009h0A1.312,1.312,0,0,1,259.254,372.358Zm6.205-.569a1.317,1.317,0,0,1,1.19-1.436h0a1.313,1.313,0,0,1,1.427,1.19h0a1.313,1.313,0,0,1-1.182,1.427h0c-.044,0-.088.009-.131.009h0A1.318,1.318,0,0,1,265.46,371.789Zm6.214-.586a1.313,1.313,0,0,1,1.182-1.427h0a1.3,1.3,0,0,1,1.427,1.191h0a1.313,1.313,0,0,1-1.182,1.427h-.123A1.3,1.3,0,0,1,271.674,371.2Zm6.205-.578a1.313,1.313,0,0,1,1.19-1.427h0a1.313,1.313,0,0,1,1.427,1.19h0a1.314,1.314,0,0,1-1.191,1.427h-.122A1.311,1.311,0,0,1,277.88,370.625Zm6.206-.578a1.325,1.325,0,0,1,1.19-1.427h0A1.308,1.308,0,0,1,286.7,369.8h0a1.315,1.315,0,0,1-1.182,1.435H285.4A1.319,1.319,0,0,1,284.085,370.047Zm6.214-.577a1.313,1.313,0,0,1,1.182-1.427h0a1.316,1.316,0,0,1,1.436,1.182h0a1.323,1.323,0,0,1-1.19,1.436H291.6A1.311,1.311,0,0,1,290.3,369.47Zm6.214-.578a1.306,1.306,0,0,1,1.182-1.427h0a1.307,1.307,0,0,1,1.427,1.181h0a1.3,1.3,0,0,1-1.182,1.427h0a.631.631,0,0,1-.122.009h0A1.305,1.305,0,0,1,296.514,368.892Zm6.205-.578a1.308,1.308,0,0,1,1.182-1.427h0a1.316,1.316,0,0,1,1.436,1.182h0a1.322,1.322,0,0,1-1.19,1.435h-.123A1.311,1.311,0,0,1,302.719,368.314Zm6.206-.578a1.309,1.309,0,0,1,1.19-1.427h0a1.313,1.313,0,0,1,1.427,1.182h0a1.3,1.3,0,0,1-1.182,1.427h0a.643.643,0,0,1-.131.009h0A1.317,1.317,0,0,1,308.925,367.736Zm6.214-.577a1.3,1.3,0,0,1,1.181-1.427h0a1.3,1.3,0,0,1,1.427,1.181h0a1.3,1.3,0,0,1-1.182,1.427h0a.6.6,0,0,1-.123.009h0A1.311,1.311,0,0,1,315.139,367.159Zm6.205-.578a1.309,1.309,0,0,1,1.19-1.427h0a1.306,1.306,0,0,1,1.427,1.182h0a1.3,1.3,0,0,1-1.19,1.427h0a.551.551,0,0,1-.123.009h0A1.317,1.317,0,0,1,321.345,366.581Zm6.214-.578a1.316,1.316,0,0,1,1.181-1.435h0a1.316,1.316,0,0,1,1.427,1.19h0a1.3,1.3,0,0,1-1.182,1.427h0a.563.563,0,0,1-.123.009h0A1.3,1.3,0,0,1,327.559,366Zm6.205-.577a1.309,1.309,0,0,1,1.19-1.427h0a1.307,1.307,0,0,1,1.427,1.181h0a1.309,1.309,0,0,1-1.182,1.427h0a.679.679,0,0,1-.131.009h0A1.311,1.311,0,0,1,333.765,365.426Z"/><path class="b" d="M341.283,366.038a1.192,1.192,0,0,1-.254-.026,1.41,1.41,0,0,1-.473-.2,1.163,1.163,0,0,1-.2-.158,1.849,1.849,0,0,1-.166-.2,1.131,1.131,0,0,1-.114-.227,1.15,1.15,0,0,1-.079-.245,1.249,1.249,0,0,1-.026-.254,1.242,1.242,0,0,1,.105-.507,1.043,1.043,0,0,1,.114-.219,1.287,1.287,0,0,1,.166-.2,1.315,1.315,0,0,1,.429-.288,1.971,1.971,0,0,1,.245-.07,1.239,1.239,0,0,1,.508,0,1.978,1.978,0,0,1,.245.07,1.423,1.423,0,0,1,.227.122,1.283,1.283,0,0,1,.2.166,1.31,1.31,0,0,1,0,1.856.891.891,0,0,1-.2.158.949.949,0,0,1-.227.123,1.15,1.15,0,0,1-.245.079A1.186,1.186,0,0,1,341.283,366.038Z"/><path class="b" d="M173.628,420.707a1.237,1.237,0,0,1-.508-.1,1.38,1.38,0,0,1-.227-.114,1.666,1.666,0,0,1-.193-.166,1.327,1.327,0,0,1-.385-.928,1.311,1.311,0,0,1,.385-.927,1.712,1.712,0,0,1,.193-.167c.079-.044.149-.087.227-.122a2.482,2.482,0,0,1,.245-.07,1.326,1.326,0,0,1,1.19.359.88.88,0,0,1,.157.2.762.762,0,0,1,.123.219,1.366,1.366,0,0,1,.079.254,1.185,1.185,0,0,1,.026.253,1.315,1.315,0,0,1-1.313,1.313Z"/><path class="b" d="M441.465,430.1a1.306,1.306,0,0,1-1.269-1.356h0a1.31,1.31,0,0,1,1.356-1.26h0a1.312,1.312,0,0,1,1.269,1.356h0a1.307,1.307,0,0,1-1.313,1.26h-.044Zm-6.092-.21a1.3,1.3,0,0,1-1.261-1.356h0a1.307,1.307,0,0,1,1.356-1.269h0a1.323,1.323,0,0,1,1.269,1.356h0a1.32,1.32,0,0,1-1.313,1.269h-.052Zm-6.083-.21a1.319,1.319,0,0,1-1.269-1.365h0a1.311,1.311,0,0,1,1.356-1.261h0a1.312,1.312,0,0,1,1.269,1.357h0a1.32,1.32,0,0,1-1.313,1.269h-.044Zm-6.092-.219a1.311,1.311,0,0,1-1.269-1.356h0a1.326,1.326,0,0,1,1.365-1.269h0a1.318,1.318,0,0,1,1.261,1.365h0a1.313,1.313,0,0,1-1.313,1.26H423.2Zm-6.092-.21a1.316,1.316,0,0,1-1.261-1.356h0a1.312,1.312,0,0,1,1.356-1.269h0a1.317,1.317,0,0,1,1.269,1.356h0a1.32,1.32,0,0,1-1.313,1.269h-.052Zm-6.083-.219a1.312,1.312,0,0,1-1.269-1.356h0a1.311,1.311,0,0,1,1.356-1.261h0a1.312,1.312,0,0,1,1.269,1.357h0a1.306,1.306,0,0,1-1.313,1.26h-.044Zm-6.092-.21a1.311,1.311,0,0,1-1.261-1.356h0a1.313,1.313,0,0,1,1.357-1.269h0a1.323,1.323,0,0,1,1.268,1.357h0a1.319,1.319,0,0,1-1.313,1.269h-.052Zm-6.083-.21a1.32,1.32,0,0,1-1.269-1.365h0a1.316,1.316,0,0,1,1.357-1.26h0a1.311,1.311,0,0,1,1.268,1.356h0a1.319,1.319,0,0,1-1.313,1.269h-.044Zm-6.092-.219a1.318,1.318,0,0,1-1.269-1.357h0a1.326,1.326,0,0,1,1.366-1.269h0a1.318,1.318,0,0,1,1.26,1.365h0a1.306,1.306,0,0,1-1.313,1.26h-.044Zm-6.083-.21a1.318,1.318,0,0,1-1.269-1.356h0a1.313,1.313,0,0,1,1.357-1.269h0a1.311,1.311,0,0,1,1.268,1.357h0a1.319,1.319,0,0,1-1.313,1.269h-.044Zm-6.092-.219a1.312,1.312,0,0,1-1.269-1.356h0a1.319,1.319,0,0,1,1.366-1.26h0a1.3,1.3,0,0,1,1.26,1.356h0a1.305,1.305,0,0,1-1.313,1.26h-.044Zm-6.092-.21a1.311,1.311,0,0,1-1.26-1.357h0a1.311,1.311,0,0,1,1.356-1.269h0a1.323,1.323,0,0,1,1.269,1.356h0a1.32,1.32,0,0,1-1.313,1.269h-.053Zm-6.083-.21a1.319,1.319,0,0,1-1.268-1.365h0a1.315,1.315,0,0,1,1.356-1.26h0a1.313,1.313,0,0,1,1.269,1.357h0a1.32,1.32,0,0,1-1.313,1.269h-.044Zm-6.091-.219a1.317,1.317,0,0,1-1.269-1.356h0a1.32,1.32,0,0,1,1.365-1.269h0a1.317,1.317,0,0,1,1.261,1.357h0a1.306,1.306,0,0,1-1.3,1.269h-.053Zm-6.083-.21a1.317,1.317,0,0,1-1.269-1.357h0a1.311,1.311,0,0,1,1.356-1.269h0a1.312,1.312,0,0,1,1.269,1.356h0a1.32,1.32,0,0,1-1.313,1.269h-.044Zm-6.092-.219a1.312,1.312,0,0,1-1.269-1.357h0a1.311,1.311,0,0,1,1.357-1.26h0a1.306,1.306,0,0,1,1.269,1.357h0a1.306,1.306,0,0,1-1.313,1.26h-.044Zm-6.092-.21a1.3,1.3,0,0,1-1.26-1.356h0a1.312,1.312,0,0,1,1.356-1.269h0a1.31,1.31,0,0,1,1.26,1.357h0a1.306,1.306,0,0,1-1.3,1.269h-.053Zm-6.083-.21a1.32,1.32,0,0,1-1.269-1.365h0a1.31,1.31,0,0,1,1.356-1.26h0a1.312,1.312,0,0,1,1.269,1.356h0a1.314,1.314,0,0,1-1.313,1.269h-.044Zm-6.092-.219a1.3,1.3,0,0,1-1.26-1.357h0a1.306,1.306,0,0,1,1.357-1.269h0a1.31,1.31,0,0,1,1.26,1.356h0a1.306,1.306,0,0,1-1.3,1.269h-.053Zm-6.083-.21a1.312,1.312,0,0,1-1.269-1.356h0a1.312,1.312,0,0,1,1.357-1.269h0a1.312,1.312,0,0,1,1.269,1.357h0a1.319,1.319,0,0,1-1.313,1.269h-.044Zm-6.092-.219a1.312,1.312,0,0,1-1.269-1.356h0a1.31,1.31,0,0,1,1.356-1.26h0a1.306,1.306,0,0,1,1.269,1.356h0a1.306,1.306,0,0,1-1.313,1.26H319.7Zm-6.092-.21a1.305,1.305,0,0,1-1.261-1.357h0a1.312,1.312,0,0,1,1.357-1.269h0a1.323,1.323,0,0,1,1.269,1.356h0a1.319,1.319,0,0,1-1.313,1.269h-.052Zm-6.083-.21a1.32,1.32,0,0,1-1.269-1.365h0a1.311,1.311,0,0,1,1.357-1.26h0a1.312,1.312,0,0,1,1.269,1.357h0a1.314,1.314,0,0,1-1.313,1.269h-.044Zm-6.092-.219a1.3,1.3,0,0,1-1.26-1.356h0a1.306,1.306,0,0,1,1.356-1.269h0a1.316,1.316,0,0,1,1.26,1.357h0a1.306,1.306,0,0,1-1.3,1.269h-.053Zm-6.083-.21a1.317,1.317,0,0,1-1.269-1.357h0a1.311,1.311,0,0,1,1.356-1.269h0a1.312,1.312,0,0,1,1.269,1.356h0a1.32,1.32,0,0,1-1.313,1.269h-.044Zm-6.092-.219a1.312,1.312,0,0,1-1.269-1.357h0a1.323,1.323,0,0,1,1.356-1.269h0a1.32,1.32,0,0,1,1.269,1.365h0a1.307,1.307,0,0,1-1.313,1.26h-.044Zm-6.092-.21a1.31,1.31,0,0,1-1.26-1.356h0a1.312,1.312,0,0,1,1.356-1.269h0a1.323,1.323,0,0,1,1.269,1.357h0a1.32,1.32,0,0,1-1.313,1.269h-.053Zm-6.083-.21a1.32,1.32,0,0,1-1.269-1.365h0a1.315,1.315,0,0,1,1.356-1.26h0a1.312,1.312,0,0,1,1.269,1.356h0a1.32,1.32,0,0,1-1.313,1.269h-.044Zm-6.092-.219a1.318,1.318,0,0,1-1.269-1.357h0a1.319,1.319,0,0,1,1.365-1.269h0a1.316,1.316,0,0,1,1.26,1.356h0a1.3,1.3,0,0,1-1.313,1.269h-.044Zm-6.083-.21a1.32,1.32,0,0,1-1.269-1.365h0a1.311,1.311,0,0,1,1.357-1.26h0a1.312,1.312,0,0,1,1.269,1.357h0a1.319,1.319,0,0,1-1.313,1.269h-.044Zm-6.092-.219a1.306,1.306,0,0,1-1.269-1.356h0a1.323,1.323,0,0,1,1.357-1.269h0a1.32,1.32,0,0,1,1.269,1.365h0a1.314,1.314,0,0,1-1.313,1.269h0A.077.077,0,0,1,258.817,423.691Zm-6.092-.21a1.31,1.31,0,0,1-1.26-1.357h0a1.311,1.311,0,0,1,1.356-1.269h0a1.31,1.31,0,0,1,1.26,1.356h0a1.306,1.306,0,0,1-1.3,1.269h-.053Zm-6.083-.21a1.32,1.32,0,0,1-1.269-1.365h0a1.311,1.311,0,0,1,1.357-1.26h0A1.312,1.312,0,0,1,248,422h0a1.319,1.319,0,0,1-1.313,1.269h-.044Zm-6.092-.219a1.317,1.317,0,0,1-1.269-1.356h0a1.32,1.32,0,0,1,1.365-1.269h0a1.316,1.316,0,0,1,1.26,1.356h0a1.306,1.306,0,0,1-1.3,1.269h-.053Zm-6.083-.21a1.317,1.317,0,0,1-1.269-1.357h0a1.311,1.311,0,0,1,1.356-1.269h0a1.312,1.312,0,0,1,1.269,1.356h0a1.32,1.32,0,0,1-1.313,1.269h-.044Zm-6.092-.219a1.306,1.306,0,0,1-1.269-1.357h0A1.323,1.323,0,0,1,228.463,420h0a1.319,1.319,0,0,1,1.269,1.365h0a1.3,1.3,0,0,1-1.313,1.261h-.044Zm-6.092-.21a1.3,1.3,0,0,1-1.26-1.356h0a1.312,1.312,0,0,1,1.357-1.269h0a1.3,1.3,0,0,1,1.26,1.356h0a1.306,1.306,0,0,1-1.3,1.269h-.053Zm-6.083-.21a1.32,1.32,0,0,1-1.269-1.365h0a1.31,1.31,0,0,1,1.356-1.26h0a1.312,1.312,0,0,1,1.269,1.356h0a1.32,1.32,0,0,1-1.313,1.269H216.2Zm-6.092-.219a1.318,1.318,0,0,1-1.269-1.357h0a1.319,1.319,0,0,1,1.365-1.269h0a1.318,1.318,0,0,1,1.26,1.365h0a1.31,1.31,0,0,1-1.3,1.261h-.052Zm-6.092-.21a1.316,1.316,0,0,1-1.26-1.356h0a1.312,1.312,0,0,1,1.357-1.269h0a1.311,1.311,0,0,1,1.269,1.356h0a1.319,1.319,0,0,1-1.313,1.269h-.053Zm-6.083-.219a1.312,1.312,0,0,1-1.269-1.356h0a1.323,1.323,0,0,1,1.357-1.269h0a1.325,1.325,0,0,1,1.269,1.365h0a1.306,1.306,0,0,1-1.313,1.26h-.044Zm-6.092-.21a1.31,1.31,0,0,1-1.26-1.356h0a1.306,1.306,0,0,1,1.356-1.269h0a1.318,1.318,0,0,1,1.269,1.357h0a1.32,1.32,0,0,1-1.313,1.269h-.053Zm-6.083-.21a1.319,1.319,0,0,1-1.269-1.365h0a1.31,1.31,0,0,1,1.356-1.26h0a1.312,1.312,0,0,1,1.269,1.356h0a1.32,1.32,0,0,1-1.313,1.269h-.044Zm-6.092-.219a1.317,1.317,0,0,1-1.269-1.356h0a1.319,1.319,0,0,1,1.365-1.269h0a1.318,1.318,0,0,1,1.261,1.365h0a1.313,1.313,0,0,1-1.313,1.26h-.044Z"/><path class="b" d="M447.6,430.317a1.189,1.189,0,0,1-.254-.026,1.409,1.409,0,0,1-.254-.079,1.045,1.045,0,0,1-.219-.114,1.259,1.259,0,0,1-.2-.166,1.845,1.845,0,0,1-.166-.2,1.921,1.921,0,0,1-.122-.227,1.887,1.887,0,0,1-.07-.245,1.159,1.159,0,0,1-.026-.254,1.329,1.329,0,0,1,.385-.927,1.284,1.284,0,0,1,.2-.167,1.8,1.8,0,0,1,.219-.122c.087-.026.167-.053.254-.07a1.308,1.308,0,0,1,1.181.359,1.326,1.326,0,0,1,.385.927,1.159,1.159,0,0,1-.026.254,1.119,1.119,0,0,1-.079.245.839.839,0,0,1-.122.227,1.154,1.154,0,0,1-.158.2A1.325,1.325,0,0,1,447.6,430.317Z"/><path class="b" d="M196.569,271.345a1.329,1.329,0,0,1-.262-.026c-.079-.018-.167-.044-.245-.07a1.863,1.863,0,0,1-.227-.123,1.208,1.208,0,0,1-.193-.166,1.312,1.312,0,0,1-.385-.928,1.329,1.329,0,0,1,.385-.928,1.3,1.3,0,0,1,1.182-.359,1.481,1.481,0,0,1,.674.359,1.329,1.329,0,0,1,.385.928,1.312,1.312,0,0,1-.385.928A1.326,1.326,0,0,1,196.569,271.345Z"/><path class="b" d="M341.187,306.084a1.3,1.3,0,0,1-.963-1.575h0a1.3,1.3,0,0,1,1.584-.971h0a1.3,1.3,0,0,1,.963,1.575h0a1.314,1.314,0,0,1-1.269,1.015h0A1.292,1.292,0,0,1,341.187,306.084Zm-6.031-1.444a1.312,1.312,0,0,1-.971-1.584h0a1.313,1.313,0,0,1,1.575-.971h0a1.3,1.3,0,0,1,.972,1.584h0a1.306,1.306,0,0,1-1.269,1.006h0A1.167,1.167,0,0,1,335.156,304.64Zm-6.039-1.453a1.311,1.311,0,0,1-.971-1.584h0a1.305,1.305,0,0,1,1.584-.963h0a1.3,1.3,0,0,1,.963,1.575h0a1.3,1.3,0,0,1-1.269,1.006h0A1.164,1.164,0,0,1,329.117,303.187Zm-6.039-1.444a1.308,1.308,0,0,1-.971-1.584h0a1.311,1.311,0,0,1,1.584-.971h0a1.318,1.318,0,0,1,.971,1.584h0a1.323,1.323,0,0,1-1.278,1.006h0A1.164,1.164,0,0,1,323.078,301.742Zm-6.039-1.453a1.3,1.3,0,0,1-.972-1.584h0a1.318,1.318,0,0,1,1.584-.972h0a1.326,1.326,0,0,1,.972,1.584h0a1.317,1.317,0,0,1-1.278,1.007h0A1.183,1.183,0,0,1,317.039,300.29ZM311,298.845a1.319,1.319,0,0,1-.972-1.584h0a1.3,1.3,0,0,1,1.584-.972h0a1.317,1.317,0,0,1,.971,1.584h0a1.315,1.315,0,0,1-1.278,1.006h0A1.163,1.163,0,0,1,311,298.845Zm-6.04-1.453a1.3,1.3,0,0,1-.971-1.584h0a1.317,1.317,0,0,1,1.584-.971h0a1.326,1.326,0,0,1,.971,1.584h0a1.315,1.315,0,0,1-1.278,1.007h0A1.229,1.229,0,0,1,304.96,297.393Zm-6.039-1.444a1.319,1.319,0,0,1-.971-1.584h0a1.3,1.3,0,0,1,1.584-.972h0a1.318,1.318,0,0,1,.971,1.584h0a1.315,1.315,0,0,1-1.278,1.006h0A1.869,1.869,0,0,1,298.921,295.949Zm-6.039-1.453a1.311,1.311,0,0,1-.971-1.584h0a1.318,1.318,0,0,1,1.584-.971h0a1.311,1.311,0,0,1,.971,1.584h0a1.316,1.316,0,0,1-1.278,1.006h0A1.229,1.229,0,0,1,292.882,294.5Zm-6.039-1.453a1.306,1.306,0,0,1-.972-1.575h0a1.3,1.3,0,0,1,1.584-.972h0a1.318,1.318,0,0,1,.972,1.584h0a1.326,1.326,0,0,1-1.278,1.007h0A1.22,1.22,0,0,1,286.842,293.042ZM280.8,291.6a1.311,1.311,0,0,1-.972-1.584h0a1.311,1.311,0,0,1,1.584-.971h0a1.315,1.315,0,0,1,.971,1.584h0a1.315,1.315,0,0,1-1.278,1.006h0A1.272,1.272,0,0,1,280.8,291.6Zm-6.04-1.453a1.306,1.306,0,0,1-.971-1.575h0a1.308,1.308,0,0,1,1.584-.971h0a1.306,1.306,0,0,1,.971,1.575h0a1.324,1.324,0,0,1-1.278,1.015h0A1.223,1.223,0,0,1,274.764,290.145Zm-6.039-1.444a1.319,1.319,0,0,1-.971-1.584h0a1.319,1.319,0,0,1,1.584-.971h0a1.311,1.311,0,0,1,.971,1.584h0a1.315,1.315,0,0,1-1.278,1.006h0A1.257,1.257,0,0,1,268.725,288.7Zm-6.039-1.453a1.318,1.318,0,0,1-.971-1.584h0a1.305,1.305,0,0,1,1.584-.963h0a1.306,1.306,0,0,1,.971,1.575h0a1.316,1.316,0,0,1-1.278,1.006h0A1.254,1.254,0,0,1,262.685,287.248Zm-6.039-1.444a1.326,1.326,0,0,1-.972-1.584h0a1.319,1.319,0,0,1,1.584-.971h0a1.311,1.311,0,0,1,.972,1.584h0a1.326,1.326,0,0,1-1.278,1.006h0A1.925,1.925,0,0,1,256.646,285.8Zm-6.039-1.453a1.318,1.318,0,0,1-.972-1.584h0a1.326,1.326,0,0,1,1.584-.972h0a1.319,1.319,0,0,1,.971,1.584h0a1.308,1.308,0,0,1-1.278,1.006h0A1.271,1.271,0,0,1,250.607,284.351Zm-6.04-1.453a1.313,1.313,0,0,1-.971-1.576h0a1.313,1.313,0,0,1,1.584-.971h0a1.3,1.3,0,0,1,.971,1.584h0a1.317,1.317,0,0,1-1.278,1.006h0A1.3,1.3,0,0,1,244.567,282.9Zm-6.039-1.444a1.318,1.318,0,0,1-.971-1.584h0a1.326,1.326,0,0,1,1.584-.972h0a1.319,1.319,0,0,1,.971,1.584h0a1.309,1.309,0,0,1-1.278,1.007h0A1.278,1.278,0,0,1,238.528,281.454ZM232.489,280a1.3,1.3,0,0,1-.963-1.575h0a1.3,1.3,0,0,1,1.576-.972h0a1.3,1.3,0,0,1,.971,1.584h0a1.315,1.315,0,0,1-1.269,1.006h0A1.31,1.31,0,0,1,232.489,280Zm-6.039-1.444a1.305,1.305,0,0,1-.963-1.584h0a1.312,1.312,0,0,1,1.575-.971h0a1.3,1.3,0,0,1,.972,1.584h0a1.309,1.309,0,0,1-1.278,1.007h0A1.273,1.273,0,0,1,226.45,278.557Zm-6.039-1.453a1.305,1.305,0,0,1-.963-1.584h0a1.3,1.3,0,0,1,1.575-.963h0a1.3,1.3,0,0,1,.971,1.584h0a1.307,1.307,0,0,1-1.269,1h0A1.274,1.274,0,0,1,220.411,277.1Zm-6.031-1.444a1.3,1.3,0,0,1-.971-1.584h0a1.306,1.306,0,0,1,1.575-.971h0a1.3,1.3,0,0,1,.971,1.584h0a1.305,1.305,0,0,1-1.269,1.006h0A1.183,1.183,0,0,1,214.38,275.66Zm-6.039-1.453a1.3,1.3,0,0,1-.972-1.584h0a1.318,1.318,0,0,1,1.584-.971h0a1.314,1.314,0,0,1,.963,1.584h0a1.3,1.3,0,0,1-1.269,1.006h0A1.163,1.163,0,0,1,208.341,274.207Zm-6.04-1.444a1.313,1.313,0,0,1-.971-1.584h0a1.311,1.311,0,0,1,1.584-.971h0a1.318,1.318,0,0,1,.971,1.584h0a1.323,1.323,0,0,1-1.278,1.006h0A1.185,1.185,0,0,1,202.3,272.763Z"/><path class="b" d="M347.541,307.572a1.3,1.3,0,0,1-.928-.385.923.923,0,0,1-.166-.2,1.081,1.081,0,0,1-.123-.219.91.91,0,0,1-.07-.254,1.186,1.186,0,0,1-.026-.254,1.326,1.326,0,0,1,.385-.928,1.2,1.2,0,0,1,.192-.166,1.1,1.1,0,0,1,.228-.114,1.327,1.327,0,0,1,.245-.079,1.281,1.281,0,0,1,.516,0,1.32,1.32,0,0,1,.245.079,1.1,1.1,0,0,1,.227.114,1.849,1.849,0,0,1,.2.166,1.358,1.358,0,0,1,.377.928,2.255,2.255,0,0,1-.018.254,1.409,1.409,0,0,1-.079.254,1.081,1.081,0,0,1-.123.219,1.241,1.241,0,0,1-.158.2A1.327,1.327,0,0,1,347.541,307.572Z"/><path class="b" d="M215.159,350.7a1.315,1.315,0,0,1-1.313-1.313,1.249,1.249,0,0,1,.026-.254,1.139,1.139,0,0,1,.079-.245,1.1,1.1,0,0,1,.114-.228,1.755,1.755,0,0,1,.166-.2,1.354,1.354,0,0,1,1.855,0,1.326,1.326,0,0,1,.385.928,1.312,1.312,0,0,1-.385.928,1.263,1.263,0,0,1-.2.166,1.742,1.742,0,0,1-.219.123c-.087.026-.166.053-.254.07A1.185,1.185,0,0,1,215.159,350.7Z"/><path class="b" d="M219.868,349.251a1.312,1.312,0,0,1,1.269-1.357h0a1.325,1.325,0,0,1,1.357,1.278h0a1.312,1.312,0,0,1-1.278,1.348h-.035A1.308,1.308,0,0,1,219.868,349.251Zm6.013-.175a1.324,1.324,0,0,1,1.278-1.356h0A1.312,1.312,0,0,1,228.507,349h0a1.312,1.312,0,0,1-1.278,1.348h-.035A1.308,1.308,0,0,1,225.881,349.076Zm6.022-.175a1.3,1.3,0,0,1,1.269-1.348h0a1.3,1.3,0,0,1,1.348,1.269h0a1.3,1.3,0,0,1-1.269,1.348h-.044A1.306,1.306,0,0,1,231.9,348.9Zm6.013-.175a1.312,1.312,0,0,1,1.278-1.348h0a1.3,1.3,0,0,1,1.348,1.269h0A1.312,1.312,0,0,1,239.263,350h-.035A1.308,1.308,0,0,1,237.916,348.726Zm6.013-.175a1.312,1.312,0,0,1,1.278-1.348h0a1.3,1.3,0,0,1,1.348,1.269h0a1.311,1.311,0,0,1-1.269,1.356h-.044A1.328,1.328,0,0,1,243.929,348.551Zm6.022-.175a1.312,1.312,0,0,1,1.278-1.348h0a1.3,1.3,0,0,1,1.348,1.269h0a1.326,1.326,0,0,1-1.278,1.357h-.035A1.309,1.309,0,0,1,249.951,348.376Zm6.022-.175a1.3,1.3,0,0,1,1.269-1.348h0a1.312,1.312,0,0,1,1.348,1.278h0a1.309,1.309,0,0,1-1.269,1.348h-.044A1.3,1.3,0,0,1,255.972,348.2Zm6.013-.175a1.312,1.312,0,0,1,1.278-1.348h0a1.317,1.317,0,0,1,1.348,1.278h0a1.323,1.323,0,0,1-1.278,1.348H263.3A1.309,1.309,0,0,1,261.985,348.026Zm6.013-.175a1.323,1.323,0,0,1,1.278-1.348h0a1.312,1.312,0,0,1,1.348,1.278h0a1.31,1.31,0,0,1-1.269,1.348h-.044A1.322,1.322,0,0,1,268,347.851Zm6.022-.175a1.31,1.31,0,0,1,1.269-1.348h0a1.325,1.325,0,0,1,1.357,1.278h0a1.312,1.312,0,0,1-1.278,1.348h-.035A1.309,1.309,0,0,1,274.02,347.676Zm6.013-.175a1.323,1.323,0,0,1,1.278-1.348h0a1.312,1.312,0,0,1,1.348,1.278h0a1.3,1.3,0,0,1-1.269,1.348h-.044A1.316,1.316,0,0,1,280.033,347.5Zm6.022-.166a1.318,1.318,0,0,1,1.269-1.357h0a1.325,1.325,0,0,1,1.357,1.278h0A1.312,1.312,0,0,1,287.4,348.6h-.035A1.308,1.308,0,0,1,286.055,347.335Zm6.013-.175a1.325,1.325,0,0,1,1.278-1.356h0a1.312,1.312,0,0,1,1.348,1.278h0a1.3,1.3,0,0,1-1.269,1.348h-.044A1.314,1.314,0,0,1,292.067,347.159Zm6.022-.175a1.317,1.317,0,0,1,1.269-1.356h0a1.325,1.325,0,0,1,1.357,1.278h0a1.312,1.312,0,0,1-1.278,1.348h-.044A1.306,1.306,0,0,1,298.09,346.984Zm6.013-.175a1.312,1.312,0,0,1,1.278-1.348h0a1.3,1.3,0,0,1,1.348,1.269h0a1.31,1.31,0,0,1-1.269,1.348h0a.078.078,0,0,1-.044.009h0A1.321,1.321,0,0,1,304.1,346.809Zm6.022-.175a1.3,1.3,0,0,1,1.269-1.348h0a1.312,1.312,0,0,1,1.357,1.269h0a1.325,1.325,0,0,1-1.278,1.356h-.035A1.315,1.315,0,0,1,310.124,346.634Zm6.013-.175a1.312,1.312,0,0,1,1.278-1.348h0a1.3,1.3,0,0,1,1.348,1.269h0a1.325,1.325,0,0,1-1.278,1.357h-.035A1.322,1.322,0,0,1,316.137,346.459Zm6.022-.175a1.3,1.3,0,0,1,1.269-1.348h0a1.3,1.3,0,0,1,1.348,1.269h0a1.312,1.312,0,0,1-1.269,1.356h-.044A1.313,1.313,0,0,1,322.159,346.284Zm6.013-.175a1.312,1.312,0,0,1,1.278-1.348h0a1.312,1.312,0,0,1,1.348,1.278h0a1.322,1.322,0,0,1-1.278,1.347h-.035A1.321,1.321,0,0,1,328.172,346.109Zm6.022-.175a1.3,1.3,0,0,1,1.269-1.348h0a1.325,1.325,0,0,1,1.357,1.278h0a1.323,1.323,0,0,1-1.278,1.348H335.5A1.307,1.307,0,0,1,334.194,345.934Zm6.013-.175a1.317,1.317,0,0,1,1.278-1.348h0a1.323,1.323,0,0,1,1.348,1.278h0a1.322,1.322,0,0,1-1.278,1.348h-.035A1.309,1.309,0,0,1,340.206,345.759Z"/><path class="b" d="M347.541,346.862a1.315,1.315,0,0,1-1.313-1.313,1.249,1.249,0,0,1,.026-.254.785.785,0,0,1,.07-.245,1.146,1.146,0,0,1,.123-.227,1.165,1.165,0,0,1,.166-.2,1.183,1.183,0,0,1,.192-.166,1.1,1.1,0,0,1,.228-.114,1.358,1.358,0,0,1,.245-.079,1.325,1.325,0,0,1,1.19.359,1.732,1.732,0,0,1,.158.2,1.4,1.4,0,0,1,.2.473,2.412,2.412,0,0,1,.018.254,1.3,1.3,0,0,1-1.3,1.313Z"/><path class="b" d="M203.977,412.3c-1.026-2.09-.749,1.69-1.19-.96a49.249,49.249,0,0,1-.661-8.114,50.211,50.211,0,0,1,.372-6.118,37.851,37.851,0,0,1,1.173-5.832,17.608,17.608,0,0,1,2.162-4.865,4.488,4.488,0,0,1,3.154-2.283l.669-.053,12.646-.994q2.395.213,2.63,4.419a5.961,5.961,0,0,1-.785,3.163A2.37,2.37,0,0,1,222.3,392l-12.08.657a3.164,3.164,0,0,0-2.234,1.977,14.161,14.161,0,0,0-1.271,3.983,26.593,26.593,0,0,0-.6,4.5,40.644,40.644,0,0,0-.1,5.416Z"/><path class="b" d="M235.248,414.008a6.535,6.535,0,0,1-5.317-2.847,17.59,17.59,0,0,1-2.545-5.864,28.389,28.389,0,0,1-.776-6.618,30.415,30.415,0,0,1,.757-6.807,18.466,18.466,0,0,1,2.545-6.047,6.142,6.142,0,0,1,4.608-3.037l13.552-1.042a5.729,5.729,0,0,1,5.068,2.46,16.637,16.637,0,0,1,2.91,6.118,29.555,29.555,0,0,1,.881,7.27,29.011,29.011,0,0,1-.9,7.188,18.581,18.581,0,0,1-2.91,6.327,7.209,7.209,0,0,1-5.824,2.962Zm-.89-22q-.766.04-1.327,1.131a9,9,0,0,0-.82,2.5,15.276,15.276,0,0,0,0,5.6,8.412,8.412,0,0,0,.82,2.442q.562,1.051,1.327,1.1l13.887-.263a1.978,1.978,0,0,0,1.436-1.207,8.933,8.933,0,0,0,.9-2.6,15.706,15.706,0,0,0,.285-2.984,15.037,15.037,0,0,0-.285-2.892,8.379,8.379,0,0,0-.9-2.535q-.611-1.076-1.436-1.033Z"/><path class="b" d="M294.17,382.826a5.453,5.453,0,0,1-1.078,3.4,3.314,3.314,0,0,1-2.512,1.41L269.2,388.833a1.46,1.46,0,0,0-1.007.43,2.9,2.9,0,0,0-.573.816,1.558,1.558,0,0,0,0,1.494,2.1,2.1,0,0,0,.573.72,1.724,1.724,0,0,0,1.007.365l16.336-.762a8.127,8.127,0,0,1,5.469,1.679,9.982,9.982,0,0,1,3.138,4.241,14.019,14.019,0,0,1,.947,5.03,13.763,13.763,0,0,1-.974,4.99,10.9,10.9,0,0,1-3.137,4.372,7.99,7.99,0,0,1-5.442,1.83,6.774,6.774,0,0,1-.829.074l-19.175-.094a2.724,2.724,0,0,1-2.231-1.231,4.86,4.86,0,0,1-.909-2.99,5.1,5.1,0,0,1,.932-3.111,2.721,2.721,0,0,1,2.207-1.218l20.42-.324a1.728,1.728,0,0,0,1.278-.333,2.99,2.99,0,0,0,.76-.875,1.944,1.944,0,0,0,.263-.946,2.436,2.436,0,0,0-.263-.818,2.178,2.178,0,0,0-.76-.922,2.577,2.577,0,0,0-1.278-.4l-16.415.424a6.391,6.391,0,0,1-4.571-1.7,9.386,9.386,0,0,1-2.527-3.945,14.141,14.141,0,0,1,.023-9.114,10.55,10.55,0,0,1,2.527-4.093,7.528,7.528,0,0,1,4.547-2.167,5.4,5.4,0,0,1,.723-.131l20.319-1.558a2.9,2.9,0,0,1,2.539,1.114A4.682,4.682,0,0,1,294.17,382.826Z"/><path class="b" d="M340.589,379.807a5.674,5.674,0,0,1-1.312,3.763,4.172,4.172,0,0,1-3.056,1.571l-25.858,1.445a1.851,1.851,0,0,0-1.211.478,3.212,3.212,0,0,0-.689.9,1.857,1.857,0,0,0-.229.79,1.826,1.826,0,0,0,.229.849,2.333,2.333,0,0,0,.689.787,2.192,2.192,0,0,0,1.211.395l19.735-.921a10.534,10.534,0,0,1,6.641,1.823,11.1,11.1,0,0,1,3.818,4.665,14.177,14.177,0,0,1,1.154,5.548,13.961,13.961,0,0,1-1.187,5.509,12.139,12.139,0,0,1-3.817,4.824,10.343,10.343,0,0,1-6.608,2.014,9.025,9.025,0,0,1-1.005.081l-23.14-.114a3.362,3.362,0,0,1-2.678-1.35,5.007,5.007,0,0,1-1.09-3.275,5.255,5.255,0,0,1,1.118-3.408,3.362,3.362,0,0,1,2.65-1.338l24.65-.392a2.257,2.257,0,0,0,1.551-.37,3.418,3.418,0,0,0,.923-.966,2,2,0,0,0,.319-1.043,2.5,2.5,0,0,0-.319-.9,2.461,2.461,0,0,0-.923-1.014,3.347,3.347,0,0,0-1.551-.434l-19.834.513a8.1,8.1,0,0,1-5.5-1.851,10.185,10.185,0,0,1-3.033-4.313,14.219,14.219,0,0,1,.028-9.983,11.538,11.538,0,0,1,3.034-4.5,9.493,9.493,0,0,1,5.467-2.412,7.1,7.1,0,0,1,.871-.149l24.582-1.885a3.676,3.676,0,0,1,3.088,1.207A4.836,4.836,0,0,1,340.589,379.807Z"/><path class="b" d="M348.139,363.85a6.781,6.781,0,0,1,1.634-4.459,5.951,5.951,0,0,1,3.993-2.245,4.8,4.8,0,0,1,4.058,1.353,5.564,5.564,0,0,1,1.7,4.188,6.891,6.891,0,0,1-1.7,4.626,5.905,5.905,0,0,1-4.058,2.181,4.787,4.787,0,0,1-3.993-1.43A5.691,5.691,0,0,1,348.139,363.85Z"/><path class="b" d="M353.9,372.792a3.911,3.911,0,0,1,3.215,1.517,6.334,6.334,0,0,1,1.411,4.035v31.486c-.283,3.639-1.833,5.6-4.626,5.881a4.3,4.3,0,0,1-3.346-1.682,6.216,6.216,0,0,1-1.4-4.158v-30.9a7.038,7.038,0,0,1,1.435-4.261A4.568,4.568,0,0,1,353.9,372.792Z"/><path class="b" d="M394.344,370.707a28.592,28.592,0,0,1,8.045.5,29.328,29.328,0,0,1,7.807,2.808,22.245,22.245,0,0,1,6.777,5.6,14.718,14.718,0,0,1,3.262,8.913v20.859c-.341,3.916-2.207,6.023-5.568,6.324a5.4,5.4,0,0,1-4.019-1.81,6.246,6.246,0,0,1-1.681-4.466V391.982a7.491,7.491,0,0,0-1.914-4.849,13.07,13.07,0,0,0-3.866-2.9,17.882,17.882,0,0,0-8.843-1.774,18.2,18.2,0,0,0-4.406.8,18.612,18.612,0,0,0-4.144,1.881,13.987,13.987,0,0,0-3.562,3.146,7.945,7.945,0,0,0-1.726,4.754v16.515c-.245,3.629-1.823,5.583-4.712,5.863a4.505,4.505,0,0,1-3.459-1.677,6.057,6.057,0,0,1-1.448-4.145V390.641a15.823,15.823,0,0,1,2.69-8.438,23.508,23.508,0,0,1,5.833-6.007,30.807,30.807,0,0,1,7.132-3.766A29.141,29.141,0,0,1,394.344,370.707Z"/><path class="b" d="M577.535,378.985c-2.211-20.836-24.394-28.886-27.577-29.086a7.412,7.412,0,0,0-3.34.432c-1.352.427-2.76,2.624-2.76,2.624l-17.649,24.339-.681.939,0,0-5.523,7.517-11.814,16.079.371-31.277a6.925,6.925,0,0,0-2.449-5.258,7.31,7.31,0,0,0-5.529-1.721l-44.613,3.521c-5.741.666-10.006,2.465-12.857,5.381a26.235,26.235,0,0,0-6.083,9.493,30.348,30.348,0,0,0-.046,20.721,22.963,22.963,0,0,0,6.082,9.034,16.071,16.071,0,0,0,11.131,4.192l25.829.083a6.572,6.572,0,0,0,5.068-2.24,7.178,7.178,0,0,0,2.182-5.322,7.339,7.339,0,0,0-2.128-5.34A6.7,6.7,0,0,0,480.031,401l-26.222.551a3.968,3.968,0,0,1-3.219-1.584,10.2,10.2,0,0,1-1.982-3.776,15.22,15.22,0,0,1-.626-4.278,16.091,16.091,0,0,1,.626-4.431,11.2,11.2,0,0,1,1.982-3.926,4.722,4.722,0,0,1,3.219-1.934l36.443-1.992q2.883-.042,2.887,2.813V406.1c0,4.342.822,14.312-1.326,17.285-3.378,4.675-16.524,7.46-21.163,8.982a88.041,88.041,0,0,0-14.052,6.01c-5.475,3.038-9.732,7.177-11.552,11.752-1.98,4.975-2.075,12.637-.375,17.835,1.732,5.3,5.314,11.314,16.08,12.775,13.353,1.812,25.614-.922,33.409-8.172,7.831-7.284,10.767-17.143,11.987-30.3.454-4.9.156-2.6.579-6.017l.265-6.338,12.233-16.844,12.4-16.333,6.544-8.62c.3.233.584.453.806.639,8.922,7.488,18.59,16.975,8.907,29.237-9.392,11.894,4.261,16.919,15.97,2.491C573.627,408.43,579.594,398.386,577.535,378.985Z"/><path class="b" d="M178.563,413.849a4.787,4.787,0,0,1-4-2.47,16.59,16.59,0,0,1-1.919-5.1,28.288,28.288,0,0,1-.586-5.755,30.207,30.207,0,0,1,.571-5.913,17.259,17.259,0,0,1,1.919-5.235,4.558,4.558,0,0,1,3.467-2.6l11.945-.915q.914-.07,1.538,1.123a5.658,5.658,0,0,1,.659,2.874,6.464,6.464,0,0,1-.642,2.989q-.64,1.244-1.554,1.291l-12.066.631q-.575.03-1,.973a8.6,8.6,0,0,0-.616,2.165,15.254,15.254,0,0,0,0,4.863,8.127,8.127,0,0,0,.616,2.121q.422.913,1,.962l12.066-.225q.914-.017,1.554,1.181a6.185,6.185,0,0,1,.642,2.944,5.925,5.925,0,0,1-.659,2.921q-.624,1.238-1.538,1.232Z"/><path class="c" d="M394.44,441.341a4.287,4.287,0,0,1,1.015-2.792,3.324,3.324,0,0,1,2.426-1.265l21.5-1.2a4.168,4.168,0,0,1,.728.023l.366-.02a12.514,12.514,0,0,1,7.178,1.7,11.422,11.422,0,0,1,4.182,4.357,10.842,10.842,0,0,1,1.259,5.142,11.629,11.629,0,0,1-1.373,5.245A12.027,12.027,0,0,1,427.412,457a13.171,13.171,0,0,1-7.261,1.89l-16.269-.47a3.111,3.111,0,0,0-1.692.488,2.784,2.784,0,0,0-1,1.187,3.172,3.172,0,0,0-.332,1.145l-.018,1.245a1.872,1.872,0,0,0,.325,1.2,1.629,1.629,0,0,0,1.346.426l25.583,1.322a4.22,4.22,0,0,1,3.053,1.489,4.356,4.356,0,0,1,1.283,3.216,4.064,4.064,0,0,1-1.339,3.072,3.945,3.945,0,0,1-3.122,1.038l-28.413-2.373a6.106,6.106,0,0,1-4.349-1.96,6.94,6.94,0,0,1-1.457-4.641l.061-4.323a11.653,11.653,0,0,1,1.036-4.619,10.331,10.331,0,0,1,3.355-4.035,10.519,10.519,0,0,1,6.113-1.924l16.319-.047a4.086,4.086,0,0,0,1.948-.553,3.537,3.537,0,0,0,1.168-1.105,2.44,2.44,0,0,0,.394-1.267,2.335,2.335,0,0,0-.358-1.256,3.261,3.261,0,0,0-1.137-1.074,3.918,3.918,0,0,0-1.933-.5l-22.95.556a2.851,2.851,0,0,1-2.368-1.1A3.721,3.721,0,0,1,394.44,441.341Z"/><path class="c" d="M371.779,462.628l-4.171-.218a3.428,3.428,0,0,1-2.46-1.578,8.853,8.853,0,0,1-1.356-3.17,15.536,15.536,0,0,1-.368-3.592,14.59,14.59,0,0,1,.488-3.555,9.628,9.628,0,0,1,1.446-3.131,3.355,3.355,0,0,1,2.484-1.534l4.176-.1.1-7.024-4.652.26-.746.042a6.219,6.219,0,0,0-4.5,2.879,16.963,16.963,0,0,0-2.545,5.7,28.332,28.332,0,0,0-.82,6.4,29.35,29.35,0,0,0,.621,6.444,16.23,16.23,0,0,0,2.382,5.769,6.288,6.288,0,0,0,4.437,2.98l5.387.452Z"/><path class="c" d="M388.5,448.9a21.808,21.808,0,0,0-1.648-5.073,12.4,12.4,0,0,0-2.922-3.995,5.609,5.609,0,0,0-4.054-1.539l-.834.047-4.9.274-.1,7.088,4.246-.1a3.5,3.5,0,0,1,2.749,1.515,9.493,9.493,0,0,1,1.589,3.351,14.548,14.548,0,0,1,.465,3.881,15.49,15.49,0,0,1-.553,3.895,8.734,8.734,0,0,1-1.683,3.305,3.59,3.59,0,0,1-2.812,1.41l-4.242-.221-.1,7.088,5.725.481a6.553,6.553,0,0,0,5.28-2.5,16.305,16.305,0,0,0,3.213-6.1,27.491,27.491,0,0,0,1.076-7.27A26.615,26.615,0,0,0,388.5,448.9Z"/></svg>